<?xml version="1.0" encoding="UTF-8"?>
<svg id="Layer_2" data-name="Layer 2" xmlns="http://www.w3.org/2000/svg" viewBox="0 0 35.11 43.01">
  <g id="layer">
    <path d="M17.55,43.01C7.71,43.01,0,35.79,0,26.58c0-4.24,1.59-8.28,4.5-11.43-.6-1.31-.9-2.69-.9-4.1C3.59,4.85,9.55,0,17.16,0s13.57,4.85,13.57,11.05c0,1.21-.22,2.39-.67,3.54,3.25,3.22,5.04,7.47,5.04,11.99,0,9.22-7.71,16.44-17.55,16.44ZM17.16.74C9.97.74,4.33,5.27,4.33,11.05c0,1.38.32,2.73.94,4,.07.14.04.31-.06.42-2.88,3.03-4.47,6.98-4.47,11.11,0,8.8,7.38,15.69,16.81,15.69s16.81-6.89,16.81-15.69c0-4.4-1.77-8.53-4.99-11.63-.11-.11-.14-.27-.08-.41.47-1.12.7-2.29.7-3.49,0-5.78-5.64-10.31-12.83-10.31ZM31.02,27.09s-.01,0-.02,0c-.18,0-.33-.15-.35-.33-.6-5.14-4-9.54-8.88-11.46-.17-.07-.26-.24-.23-.42.04-.18.2-.3.38-.29,5.44.24,9.7,4.64,9.7,10.03,0,.73-.08,1.46-.24,2.19-.04.17-.19.29-.36.29ZM24.36,15.76c3.15,1.92,5.47,4.92,6.52,8.42-.18-3.95-2.84-7.26-6.52-8.42ZM7.85,13.14s-.08,0-.12-.02c-.11-.04-.2-.13-.23-.24-.18-.6-.27-1.21-.27-1.82,0-4.2,4.37-7.5,9.95-7.5s9.95,3.29,9.95,7.5c0,.46-.05.92-.15,1.37-.03.12-.11.21-.22.26-.11.05-.24.04-.34-.02-2.66-1.61-5.72-2.45-8.85-2.45-3.41,0-6.7.99-9.5,2.87-.06.04-.13.06-.21.06ZM17.16,4.29c-5.16,0-9.21,2.97-9.21,6.76,0,.38.04.75.12,1.12,2.83-1.77,6.09-2.71,9.48-2.71,3.09,0,6.11.79,8.77,2.29.03-.24.05-.47.05-.7,0-3.79-4.04-6.76-9.2-6.76Z"/>
  </g>
</svg>