<?xml version="1.0" encoding="UTF-8"?>
<svg id="Layer_2" data-name="Layer 2" xmlns="http://www.w3.org/2000/svg" viewBox="0 0 43.25 46.67">
  <g id="layer">
    <g>
      <path d="M40.67,46.67h0l-18.11-.22c-.17,0-.32-.12-.36-.29-.29-1.28-.09-3.93.41-5.72h-.2c-.43-.03-.97-.05-1.19-.06-.1.01-.26.02-.41.04-.06,0-.11.01-.17.02.51,1.8.71,4.45.41,5.73-.04.17-.19.29-.36.29l-18.11.22c-.21,0-.36-.15-.37-.34-1.13-13.93,2.39-24.04,4.27-26.75,1.51-2.17,2.33-4.27,2.84-7.27.32-1.86-.45-7.6-1.35-11.87-.02-.11,0-.22.07-.31.07-.09.18-.14.29-.14h26.57c.11,0,.22.05.29.14.07.09.1.2.07.31-.9,4.26-1.67,10.01-1.35,11.87.52,3.04,1.32,5.08,2.84,7.27h0c1.89,2.71,5.41,12.82,4.28,26.75-.02.19-.18.34-.37.34ZM22.87,45.72l17.46.21c1.03-13.55-2.35-23.3-4.17-25.92h0c-1.57-2.26-2.43-4.45-2.96-7.57-.33-1.91.37-7.34,1.26-11.7H8.79c.89,4.36,1.59,9.79,1.26,11.7-.53,3.11-1.39,5.31-2.96,7.57-1.82,2.62-5.21,12.37-4.17,25.92l17.46-.21c.19-1.32-.04-3.78-.53-5.32-.07-.24,0-.47.21-.61.06-.04.12-.06.19-.06.14,0,.31-.02.49-.04.16-.01.32-.03.48-.04.27.01.8.04,1.22.05l.56.02c.07,0,.13.03.19.06.21.14.29.38.21.62-.53,1.67-.7,4.09-.53,5.32Z"/>
      <path d="M20.2,40.56s-.02,0-.03,0l-.2-.02c-.09-.01-.18-.06-.24-.12-.14-.16-.24-.32-.34-.49-.15-.24-.28-.46-.58-.67-.14-.12-.27-.22-.43-.3-2.66-1.78-7.11-3.52-12.24-4.8-1.09-.27-2.21-.52-3.35-.74-.19-.04-.32-.22-.3-.41.23-1.79.55-3.53.93-5.18.03-.11.1-.21.21-.26.11-.05.23-.04.33.02,3.75,2.11,10.35,3.48,17.67,3.65,7.3-.17,13.9-1.54,17.65-3.65.1-.06.23-.06.33-.02.11.05.19.14.21.26.38,1.64.69,3.39.93,5.18.03.19-.1.38-.3.41-1.14.22-2.26.47-3.35.74-5.13,1.28-9.58,3.02-12.21,4.78-.18.1-.32.2-.43.3-.32.24-.45.45-.61.69-.1.16-.21.33-.35.49-.06.07-.14.11-.23.12h-.14c-.11.02-.23-.02-.33-.08l-.41-.02c-.43-.02-.97-.04-1.19-.05-.1.01-.26.02-.41.04-.12.01-.23.02-.34.03-.07.07-.16.11-.26.11ZM22.68,40.28h0s0,0,0,0ZM21.22,39.64c.27.01.8.04,1.22.05l.56.02s.07,0,.1.02c.05-.07.09-.14.13-.21.17-.27.36-.58.77-.88.13-.11.31-.24.51-.35,2.67-1.79,7.21-3.57,12.41-4.87.99-.25,2.01-.47,3.04-.68-.2-1.48-.46-2.92-.76-4.29-3.91,2.04-10.42,3.34-17.58,3.51-7.17-.17-13.69-1.48-17.59-3.51-.3,1.38-.56,2.81-.76,4.29,1.03.2,2.05.43,3.04.68,5.21,1.3,9.74,3.08,12.44,4.89.18.1.36.22.51.36.38.28.58.59.74.86.04.07.08.14.13.21.03-.01.07-.02.1-.02.14,0,.31-.02.49-.04.16-.01.32-.03.48-.04Z"/>
      <g>
        <path d="M39.01,13.43c-.06,0-.13-.02-.19-.05l-4.01-2.33c-.11-.07-.18-.19-.18-.32s.07-.25.18-.32l4.01-2.34c.12-.07.26-.07.37,0,.12.07.19.19.19.32v.77s3.5,0,3.5,0h0c.1,0,.19.04.26.11.07.07.11.16.11.26v2.39c0,.1-.04.19-.11.26-.07.07-.16.11-.26.11h-3.5s0,.77,0,.77c0,.13-.07.26-.19.32-.06.03-.12.05-.18.05ZM35.73,10.72l2.91,1.69v-.49c0-.2.17-.37.37-.37h3.5s0-1.65,0-1.65h-3.5s0,0,0,0c-.1,0-.19-.04-.26-.11-.07-.07-.11-.16-.11-.26v-.49s-2.9,1.69-2.9,1.69Z"/>
        <path d="M4.24,13.43c-.06,0-.13-.02-.18-.05-.12-.07-.19-.19-.19-.32v-.77s-3.5,0-3.5,0h0c-.2,0-.37-.17-.37-.37v-2.39c0-.2.16-.37.37-.37h3.5s0-.77,0-.77c0-.13.07-.26.19-.32.11-.07.26-.07.37,0l4.01,2.33c.11.07.18.19.18.32s-.07.25-.18.32l-4.01,2.34c-.06.03-.12.05-.19.05ZM4.24,11.55c.2,0,.37.17.37.37v.49s2.9-1.69,2.9-1.69l-2.91-1.69v.49c0,.1-.04.19-.11.26-.07.07-.16.11-.26.11H.74s0,1.65,0,1.65h3.5s0,0,0,0Z"/>
      </g>
    </g>
  </g>
</svg>