<?xml version="1.0" encoding="UTF-8"?>
<svg id="Layer_2" data-name="Layer 2" xmlns="http://www.w3.org/2000/svg" viewBox="0 0 34.15 38.95">
  <g id="layer">
    <g>
      <path d="M25.84,38.95H5.08c-.79,0-1.44-.65-1.44-1.44v-3.85c0-.67.46-1.24,1.09-1.4h-.5L.53,8.62h.02L.01,5.11c-.06-.38.06-.93.96-1.42.53-.3,1.27-.53,2.08-.65.8-.12,1.58-.13,2.18,0,1,.2,1.28.69,1.34,1.07l.39,2.56-.39-3.94c-.12-1.17,1.62-1.76,3.14-1.91,1.52-.15,3.34.09,3.45,1.25l.38,3.81-.05-4.24c0-.38.19-.91,1.15-1.28C15.21.14,15.97.01,16.78,0c.82-.01,1.58.1,2.16.3.97.34,1.17.87,1.18,1.25l.02,1.75.04-1.27c.01-.38.23-.9,1.2-1.22.58-.19,1.35-.28,2.16-.26.81.03,1.57.17,2.14.4.95.38,1.13.92,1.12,1.3l-.22,6.86.05,3.12,1.22-3.41c.1-.28.36-.63,1.03-.75,1.41-.26,3.97.66,4.89,1.75.44.52.42.96.32,1.23l-6.81,19.97v6.49c0,.79-.64,1.44-1.44,1.44ZM5.08,32.96c-.39,0-.7.31-.7.7v3.85c0,.39.31.7.7.7h20.76c.39,0,.7-.31.7-.7v-6.61s6.85-20.09,6.85-20.09c.05-.14-.01-.31-.18-.51-.75-.88-3.06-1.71-4.2-1.5-.26.05-.42.14-.46.27l-2.59,7.24-.12-7.21.22-6.88c.01-.41-1.01-.88-2.54-.93-1.53-.04-2.59.36-2.6.76l-.24,7.31h-1.22l-.09-7.8c0-.29-.48-.49-.68-.56-.49-.17-1.18-.27-1.9-.26-.72,0-1.41.12-1.89.3-.2.08-.67.29-.67.57l.09,7.74h-1.18l-.72-7.22c-.04-.41-1.11-.74-2.64-.59-1.53.15-2.52.69-2.48,1.1l.67,6.71h-1.35l-.79-5.14c-.04-.28-.54-.41-.76-.46-.51-.1-1.21-.1-1.92,0-.71.11-1.38.32-1.83.57-.19.11-.63.38-.58.66l.67,4.36h-.02l3.46,22.16h6.9v1.44h-6.68Z"/>
      <path d="M6.94,14.02c-.03-.33.2-.61.51-.62l14.87-.39c.31,0,.55.26.54.59-.01.33-.27.61-.58.61l-14.73.38c-.31,0-.58-.25-.61-.58Z"/>
      <path d="M7.3,17.95c-.03-.31.19-.57.49-.58l14.4-.37c.3,0,.53.24.52.55-.01.31-.26.57-.56.58l-14.26.37c-.3,0-.56-.24-.59-.55Z"/>
      <path d="M8.24,22.54c-.29,0-.54-.22-.57-.51-.03-.29.19-.53.48-.54l13.9-.36c.29,0,.52.22.5.51-.01.29-.25.53-.54.54l-13.78.36Z"/>
      <path d="M21.77,35.16c-1.7,0-3.09-1.39-3.09-3.09s1.39-3.09,3.09-3.09,3.09,1.39,3.09,3.09-1.39,3.09-3.09,3.09ZM21.77,29.72c-1.3,0-2.35,1.05-2.35,2.35s1.05,2.35,2.35,2.35,2.35-1.05,2.35-2.35-1.05-2.35-2.35-2.35Z"/>
    </g>
  </g>
</svg>