<?xml version="1.0" encoding="UTF-8"?>
<svg id="Layer_2" data-name="Layer 2" xmlns="http://www.w3.org/2000/svg" viewBox="0 0 65.45 51.43">
  <g id="layer">
    <g>
      <path d="M42.49,51.43h-19.53c-.11,0-.22-.05-.29-.13-.07-.08-.11-.19-.1-.3.19-1.94-.53-9.11-1.48-10.53-1.01-1.51-1.92-2.73-2.97-4.14l-1.21-1.62c-.61-.8-.62-.82-1.25-2l-.18-.33c-.18-.33-.35-.8-.53-1.29-.32-.89-.77-2.11-1.29-2.41-.76-.43-2.82-1.25-3.72-1.54-2.53-.82-4.54-2.33-5.66-4.28-.52-.9-.98-1.48-1.46-2.09-.44-.55-.89-1.13-1.39-1.95-.12-.2-.24-.39-.36-.56-.32-.49-.62-.96-.84-1.59-.52-1.54-.04-3.05.67-3.86.58-.67.93-1.36,1.31-2.1.47-.92,1-1.96,2.06-3.07.43-.45.85-.9,1.26-1.34C7.75,3.89,9.86,1.63,12.54.51c1.51-.63,4.69-.83,6.05.32.38.32,2.26,1.96,2.11,2.96-.09.57-.77,2.62-1.98,2.8-1.05.15-1.88,0-2.47-.44-.51-.38-.83-.98-.94-1.76,0-.04-.07-.14-.21-.24-.27-.18-.78-.32-1.37-.15-.38.1-.69.61-.98,1.09-.18.3-.37.61-.59.85-1.11,1.18-1.51,2.8-2.02,4.85-.3,1.2-.62,2.54-1.15,4.01,2.77-.64,4.95,1.13,5.84,2.38,1.34,1.86,2.05,1.85,3.64,1.82.22,0,.45,0,.7,0,2.69,0,4.13,1.28,5.08,2.12.39.35.73.65.99.7.7.14.99,0,1.76-.4.19-.1.4-.2.64-.32.17-.08.69-.65.33-4.54-.78-.3-1.55-1.28-1.55-2.42,0-1.03.47-1.5.9-1.71-.15-1.5.02-4.39.84-5.38.82-.99,3.03-1.19,4.02-1.24.03,0,.06-.01.1-.01l.08.4.02-.39s.06,0,.09,0h0c.1,0,.19,0,.29.01.03,0,.09,0,.16-.01.03,0,.06-.01.1,0h.17s.07,0,.1.01c.99.04,3.2.24,4.02,1.23.81.98.99,3.88.84,5.38.43.21.9.68.9,1.71,0,1.14-.77,2.13-1.55,2.42-.36,3.88.16,4.45.33,4.54.25.12.46.23.65.32.77.4,1.06.54,1.76.4.25-.05.59-.35.99-.7.95-.84,2.39-2.11,5.08-2.12.25,0,.48,0,.69,0,1.58.03,2.3.04,3.64-1.82.9-1.25,3.07-3.02,5.84-2.38-.53-1.47-.86-2.81-1.15-4.01-.5-2.05-.9-3.68-2.02-4.85-.22-.23-.41-.55-.59-.85-.29-.49-.6-.99-.98-1.09-.6-.16-1.1-.03-1.37.15-.15.1-.21.2-.22.24-.11.79-.43,1.38-.94,1.76-.59.44-1.42.59-2.47.44-1.21-.17-1.89-2.23-1.98-2.8-.15-1,1.73-2.64,2.11-2.96,1.35-1.14,4.54-.95,6.05-.32,2.68,1.12,4.79,3.38,7.03,5.78.41.44.83.89,1.26,1.33,1.06,1.11,1.59,2.15,2.06,3.07.37.74.73,1.43,1.31,2.1h0c.71.82,1.19,2.33.67,3.86-.22.63-.52,1.1-.84,1.59-.12.18-.24.36-.36.57-.5.82-.95,1.4-1.39,1.95-.48.61-.94,1.19-1.46,2.08-1.12,1.94-3.13,3.46-5.66,4.28-.9.29-2.97,1.11-3.72,1.54-.53.3-.97,1.52-1.29,2.41-.18.5-.35.96-.53,1.29l-.18.34c-.64,1.18-.65,1.2-1.25,2l-1.25,1.68c-1.03,1.39-1.93,2.58-2.92,4.08-.95,1.42-1.67,8.59-1.48,10.53.01.11-.03.22-.1.3-.07.08-.18.13-.29.13ZM23.38,50.64h18.69c-.07-2.4.58-9.04,1.64-10.62,1.01-1.51,1.9-2.71,2.94-4.11l1.26-1.68q.58-.76,1.19-1.9l.18-.34c.15-.28.31-.72.48-1.19.41-1.12.87-2.39,1.64-2.83.86-.49,3.02-1.33,3.87-1.61,2.34-.75,4.2-2.15,5.22-3.92.55-.95,1.04-1.57,1.52-2.18.42-.54.86-1.09,1.34-1.87.13-.21.26-.41.38-.59.31-.47.57-.87.75-1.41.42-1.23.03-2.46-.52-3.09h0c-.65-.74-1.02-1.48-1.42-2.26-.46-.91-.95-1.86-1.93-2.88-.43-.45-.85-.9-1.26-1.34-2.18-2.33-4.23-4.53-6.76-5.59-1.32-.55-4.16-.72-5.23.19-.99.84-1.88,1.92-1.84,2.24.09.57.7,2.04,1.31,2.13.83.12,1.46.02,1.88-.29.34-.25.55-.67.63-1.24.04-.3.24-.58.56-.79.54-.36,1.29-.45,2.02-.26.69.19,1.09.86,1.45,1.45.17.28.33.54.49.71,1.26,1.33,1.7,3.13,2.21,5.21.34,1.38.72,2.95,1.41,4.67.06.15.02.31-.09.42-.11.11-.28.15-.42.09-2.71-1.04-4.86.68-5.71,1.86-1.58,2.2-2.66,2.18-4.3,2.15-.21,0-.44,0-.68,0-2.39,0-3.64,1.11-4.56,1.92-.5.44-.89.79-1.35.88-.97.19-1.46-.06-2.28-.47-.18-.09-.39-.2-.63-.31-.88-.42-1.1-2.1-.75-5.6.02-.18.16-.33.34-.35.46-.06,1.18-.82,1.18-1.72,0-.61-.21-.95-.64-1.07-.2-.05-.32-.25-.29-.45.22-1.36,0-4.31-.62-5.07-.43-.52-1.81-.89-3.51-.95-.02,0-.03,0-.05,0h-.02s0,0,0,0c0,0,0,0-.01,0-.03,0-.06.01-.08.01-.09,0-.17,0-.26.01-.14,0-.23-.01-.31-.01-.02,0-.04,0-.05,0-.02,0-.04,0-.05,0h0s-.05,0-.07,0c-1.71.06-3.08.43-3.51.95-.62.75-.84,3.71-.62,5.07.03.2-.09.39-.29.45-.43.11-.64.46-.64,1.07,0,.9.71,1.66,1.18,1.72.18.02.33.17.34.35.35,3.51.13,5.18-.75,5.6-.24.11-.44.22-.62.31-.82.42-1.31.67-2.28.47-.46-.09-.86-.44-1.35-.88-.91-.81-2.17-1.91-4.56-1.92-.24,0-.47,0-.68,0-1.64.03-2.72.04-4.3-2.15-.85-1.18-3.01-2.9-5.71-1.86-.15.06-.31.02-.42-.09-.11-.11-.15-.28-.09-.42.68-1.72,1.07-3.29,1.41-4.67.51-2.08.95-3.88,2.21-5.21.16-.17.32-.43.49-.71.36-.59.76-1.26,1.45-1.45.72-.2,1.48-.1,2.02.26.32.21.52.49.56.79.08.57.29.99.63,1.24.41.31,1.05.41,1.88.29.6-.09,1.22-1.56,1.31-2.13.05-.31-.84-1.4-1.84-2.23-1.07-.91-3.92-.74-5.23-.19-2.52,1.05-4.58,3.25-6.75,5.58-.41.44-.84.89-1.27,1.35-.98,1.03-1.46,1.97-1.93,2.88-.4.78-.77,1.52-1.42,2.26-.54.62-.94,1.86-.52,3.09.19.54.45.95.75,1.41.12.18.24.37.37.59.48.78.91,1.33,1.33,1.87.48.61.98,1.24,1.52,2.18,1.02,1.77,2.88,3.17,5.22,3.92.84.27,3.01,1.12,3.87,1.61.78.44,1.24,1.71,1.65,2.83.17.47.33.91.48,1.19l.18.33q.61,1.14,1.19,1.9l1.21,1.62c1.06,1.42,1.97,2.64,2.99,4.17,1.06,1.58,1.71,8.22,1.64,10.62Z"/>
      <path d="M32.68,9.2c-1.76,0-3.46-.18-4.77-.51-.1-.03-.19-.09-.25-.18-.05-.09-.07-.2-.04-.3.14-.52.32-.9.53-1.16.82-.99,3.03-1.19,4.02-1.24.03,0,.06-.01.1-.01l.08.4.02-.39s.06,0,.09,0h0c.1,0,.19,0,.29.01.03,0,.09,0,.16-.01.03,0,.06-.01.1,0h.17s.07,0,.1.01c.99.04,3.2.24,4.02,1.23.21.25.38.63.52,1.14.03.1.01.21-.04.3-.05.09-.14.16-.24.19-1.33.34-3.05.53-4.86.53ZM28.51,8.01c2.41.51,6.05.5,8.42-.02-.09-.24-.18-.38-.24-.46-.43-.52-1.81-.89-3.51-.95-.02,0-.03,0-.05,0h-.02s0,0,0,0c0,0,0,0-.01,0-.03,0-.06.01-.08.01-.09,0-.17,0-.26.01-.14,0-.23-.01-.31-.01-.02,0-.04,0-.05,0-.02,0-.04,0-.05,0h0s-.05,0-.07,0c-1.71.06-3.08.43-3.51.95-.07.08-.15.22-.25.47Z"/>
      <g>
        <path d="M61.47,34.46l-2.28-3.45-1.26.83-.36-6.32,5.67,2.81-1.26.83,2.28,3.45-2.79,1.84ZM59.42,29.91l2.28,3.45,1.47-.97-2.28-3.45.77-.51-3.22-1.59.2,3.58.77-.51Z"/>
        <path d="M52.08,16.69l-5.67-2.81,1.26-.83-2.28-3.45,2.79-1.84,2.28,3.45,1.26-.83.36,6.32ZM48,13.78l3.22,1.59-.2-3.58-.77.51-2.28-3.45-1.47.97,2.28,3.45-.77.51Z"/>
      </g>
    </g>
  </g>
</svg>