<?xml version="1.0" encoding="UTF-8"?>
<svg id="Layer_2" data-name="Layer 2" xmlns="http://www.w3.org/2000/svg" viewBox="0 0 56.18 46.05">
  <g id="layer">
    <g>
      <g>
        <g>
          <path d="M45.48,46.05c-.63,0-1.22-.29-1.66-.82-.42-.51-.66-1.18-.66-1.89v-15.14c0-1.5,1.03-2.72,2.31-2.72h3.07s0,0,0,0c.63,0,1.22.29,1.66.82.42.51.66,1.18.66,1.89v15.14c0,1.5-1.03,2.72-2.31,2.72h-3.07s0,0,0,0ZM48.55,26.21h-3.08c-.87,0-1.57.89-1.57,1.97v15.14c0,.54.18,1.04.49,1.42.3.36.68.55,1.09.55h3.08c.87,0,1.58-.89,1.58-1.98v-15.14c0-.54-.18-1.04-.49-1.42-.3-.36-.68-.55-1.09-.55Z"/>
          <path d="M20.81,46.05c-.63,0-1.22-.29-1.66-.82-.42-.51-.66-1.18-.66-1.89v-15.14c0-1.5,1.03-2.72,2.31-2.72h3.07s0,0,0,0c.63,0,1.22.29,1.66.82.42.51.66,1.18.66,1.89v15.14c0,1.5-1.03,2.72-2.31,2.72h-3.07s0,0,0,0ZM23.88,26.22h-3.07c-.87,0-1.57.89-1.57,1.97v15.14c0,.54.18,1.04.49,1.42.3.36.68.55,1.09.55h3.07c.87,0,1.58-.89,1.58-1.98v-15.14c0-.54-.18-1.04-.49-1.42-.3-.36-.68-.55-1.09-.55Z"/>
        </g>
        <path d="M20.81,46.05c-.63,0-1.22-.29-1.66-.82-.42-.51-.66-1.18-.66-1.89v-15.14c0-1.5,1.03-2.72,2.31-2.72h3.07s0,0,0,0c.63,0,1.22.29,1.66.82.42.51.66,1.18.66,1.89v4.39s16.97,0,16.97,0v-4.39c0-1.5,1.04-2.72,2.31-2.72h3.07s0,0,0,0c.63,0,1.22.29,1.66.82.42.51.66,1.18.66,1.89v15.14c0,1.5-1.03,2.72-2.31,2.72h-3.07s0,0,0,0c-1.28,0-2.32-1.22-2.32-2.71v-4.39s-16.97,0-16.97,0v4.39c0,1.5-1.04,2.72-2.32,2.72h-3.07s0,0,0,0ZM23.88,26.22h-3.07c-.87,0-1.57.89-1.57,1.97v15.14c0,.54.18,1.04.49,1.42.3.36.68.55,1.09.55h3.07c.87,0,1.58-.89,1.58-1.98v-5.13s18.44,0,18.44,0v5.13c0,1.09.71,1.97,1.58,1.97h3.08c.87,0,1.58-.89,1.58-1.98v-15.14c0-.54-.18-1.04-.49-1.42-.3-.36-.68-.55-1.09-.55h-3.08c-.87,0-1.57.89-1.57,1.97v5.13s-18.45,0-18.45,0v-5.13c0-.54-.17-1.04-.49-1.42-.3-.36-.68-.55-1.09-.55Z"/>
        <path d="M51.99,43.66c-.5,0-.98-.23-1.33-.66-.34-.4-.52-.93-.52-1.49v-11.5c0-1.19.82-2.15,1.84-2.15h2.33s0,0,0,0c.51,0,.98.23,1.33.66.34.4.52.93.52,1.49v11.5c0,1.19-.83,2.15-1.84,2.15h-2.33s0,0,0,0ZM50.89,41.51c0,.39.12.75.35,1.02.21.25.48.39.76.39h2.34c.6,0,1.11-.65,1.11-1.41v-11.5c0-.39-.13-.75-.35-1.02-.21-.25-.48-.39-.76-.39h-2.34c-.6,0-1.11.65-1.11,1.41v11.5Z"/>
        <path d="M15.03,43.67c-.5,0-.98-.23-1.33-.66-.34-.4-.52-.93-.52-1.49v-11.5c0-1.19.82-2.15,1.84-2.15h2.33c1.02,0,1.85.96,1.85,2.15v11.5c0,1.19-.83,2.15-1.84,2.15h-2.34s0,0,0,0ZM13.92,41.52c0,.39.12.75.35,1.02.21.25.48.39.76.39h2.34c.6,0,1.11-.65,1.11-1.41v-11.5c0-.76-.51-1.41-1.11-1.41h-2.33c-.6,0-1.11.65-1.11,1.41v11.5Z"/>
      </g>
      <g>
        <g>
          <path d="M32.97,28.35c-.21,0-.42-.03-.62-.1l-2.92-.95c-1.21-.4-1.83-1.88-1.36-3.3l4.69-14.4c.22-.68.65-1.24,1.21-1.6.58-.37,1.23-.46,1.83-.27l2.92.95c1.22.4,1.83,1.88,1.36,3.3l-4.69,14.4c-.39,1.18-1.4,1.96-2.43,1.96ZM35.17,8.38c-.27,0-.55.09-.82.25-.42.26-.74.69-.9,1.2l-4.69,14.4c-.34,1.04.06,2.1.89,2.37l2.92.95c.83.27,1.77-.36,2.11-1.39l4.69-14.4c.34-1.03-.06-2.1-.89-2.36l-2.92-.95c-.13-.04-.26-.06-.39-.06Z"/>
          <path d="M9.51,20.71c-.21,0-.42-.03-.62-.1l-2.92-.95c-1.21-.4-1.83-1.88-1.36-3.3L9.29,1.96c.22-.68.65-1.24,1.21-1.6C11.08,0,11.73-.1,12.33.1l2.92.95c1.22.4,1.83,1.88,1.36,3.3l-4.69,14.4c-.39,1.19-1.4,1.96-2.42,1.96ZM11.71.74c-.27,0-.55.09-.82.25-.41.26-.73.69-.9,1.2l-4.69,14.4c-.34,1.04.06,2.1.89,2.36l2.92.95c.83.27,1.77-.35,2.11-1.39l4.69-14.4c.34-1.03-.06-2.1-.89-2.36l-2.92-.95c-.13-.04-.26-.06-.39-.06Z"/>
        </g>
        <path d="M32.97,28.35c-.21,0-.42-.03-.62-.1l-2.92-.95c-1.21-.4-1.83-1.88-1.36-3.3l1.36-4.18-16.13-5.25-1.36,4.18c-.22.68-.65,1.24-1.21,1.6-.58.37-1.23.46-1.83.27l-2.92-.95c-1.21-.4-1.83-1.88-1.36-3.3L9.29,1.96c.22-.68.65-1.24,1.21-1.6C11.08,0,11.73-.1,12.33.1l2.92.95c1.22.4,1.83,1.88,1.36,3.3l-1.36,4.18,16.13,5.25,1.36-4.18c.22-.68.65-1.24,1.21-1.6.58-.37,1.23-.46,1.83-.27l2.92.95c1.22.4,1.83,1.88,1.36,3.3l-4.69,14.4c-.39,1.18-1.4,1.96-2.43,1.96ZM12.82,13.64l17.54,5.71-1.59,4.88c-.34,1.04.06,2.1.89,2.37l2.92.95c.83.27,1.77-.36,2.11-1.39l4.69-14.4c.34-1.03-.06-2.1-.89-2.36l-2.92-.95c-.39-.13-.81-.06-1.21.19-.42.26-.74.69-.9,1.2l-1.59,4.88-17.54-5.71,1.59-4.88c.34-1.03-.06-2.1-.89-2.36l-2.92-.95c-.39-.13-.81-.06-1.21.19-.41.26-.73.69-.9,1.2l-4.69,14.4c-.34,1.04.06,2.1.89,2.36l2.92.95c.39.13.82.06,1.21-.19.42-.26.74-.69.9-1.2l1.59-4.88Z"/>
        <path d="M39.08,27.84c-.17,0-.33-.03-.5-.08l-2.22-.72c-.97-.32-1.46-1.49-1.09-2.62l3.56-10.93c.37-1.13,1.45-1.79,2.42-1.47l2.22.72c.97.32,1.46,1.49,1.09,2.62l-3.56,10.93c-.3.94-1.11,1.55-1.93,1.55ZM35.98,24.66c-.24.73.05,1.5.62,1.68l2.22.72c.57.19,1.25-.27,1.49-1l3.56-10.93c.24-.74-.04-1.49-.62-1.68l-2.22-.72c-.57-.19-1.25.27-1.49,1l-3.56,10.93Z"/>
        <path d="M3.93,16.41c-.17,0-.34-.03-.5-.08l-2.22-.72c-.48-.16-.86-.52-1.06-1.04-.19-.49-.21-1.05-.03-1.58L3.68,2.05c.17-.53.51-.98.96-1.26.47-.29.99-.37,1.47-.21l2.22.72c.48.16.86.52,1.06,1.04.19.49.21,1.05.03,1.58l-3.56,10.93c-.17.53-.51.98-.96,1.26-.31.19-.64.29-.97.29ZM.83,13.22c-.12.37-.11.75.02,1.08.12.3.33.52.6.6l2.22.72c.27.09.57.04.84-.14.3-.19.53-.49.65-.86l3.56-10.93c.12-.37.11-.75-.02-1.08-.12-.3-.33-.52-.6-.6l-2.22-.72c-.27-.09-.56-.04-.84.14-.3.19-.53.49-.65.86L.83,13.22Z"/>
      </g>
    </g>
  </g>
</svg>