<?xml version="1.0" encoding="UTF-8"?>
<svg id="Layer_2" data-name="Layer 2" xmlns="http://www.w3.org/2000/svg" viewBox="0 0 49.94 28.65">
  <g id="layer">
    <path d="M15.47,28.65h0s-1.45-.01-2.57-.06l-.66-.03c-.46-.02-.92-.36-1.07-.8,0-.02-.03-.06-.04-.07-.13.47-.62.79-1.09.76l-3.57-.48c-.47-.08-.89-.48-.99-.92-.02-.07-.05-.16-.09-.22-.1.21-.27.36-.48.44-.23.08-.49.05-.71-.07-.09-.05-2.26-1.31-2.92-2.12C.32,23.91-.09,23,.02,22.28c.06-.41.28-.75.65-1,.15-.1.36-.08.48.06,1.07,1.21,2.96,2.1,4.37,2.45,7.74,1.94,15.36.28,21.14-1.38,3.35-.96,7.27-1.15,11.05-1.33,3.14-.15,6.38-.3,9.22-.9,1.16-.25,1.85-.86,2.19-1.92.05-.16.2-.27.37-.26.17,0,.31.13.34.3.41,2.12-.46,5.17-1.54,6.69-.93,1.31-3.83,1.81-4.16,1.86-.49.08-.98-.23-1.13-.7,0-.02-.02-.05-.04-.08-.02.04-.04.09-.06.13-.13.45-.59.81-1.06.81l-1.26.02c-2.11.03-3.91-.39-3.99-.41-.24-.06-.43-.26-.67-.53-.22-.25-.5-.56-.84-.72-.61-.3-1.18-.58-2.99-.49-2.33.11-2.89.43-3.52.94-.28.23-.48.54-.66.82-.21.33-.37.6-.67.66l-3.6.7c-.49.09-.99-.21-1.14-.68,0-.02-.01-.03-.02-.05-.03.05-.06.12-.07.18-.11.45-.55.83-1.01.87l-3.75.27c-.46.03-.96-.3-1.12-.74-.16.45-.64.78-1.1.78ZM11.14,26.95c.41,0,.64.35.72.56.05.14.25.29.4.3l.67.03c1.1.05,2.54.06,2.54.06.15-.01.34-.13.39-.27.07-.21.3-.55.71-.55s.63.34.7.54c.05.13.24.25.37.25l3.73-.27c.14-.01.32-.17.36-.32.09-.37.36-.79.79-.79s.66.39.74.62c.04.11.17.2.29.17l3.59-.69s.11-.2.19-.33c.2-.31.44-.7.82-1.01.84-.67,1.6-.99,3.95-1.1,1.84-.09,2.55.18,3.35.57.46.22.81.61,1.06.89.11.12.25.28.31.31h0s1.79.41,3.79.38l1.26-.02c.14,0,.32-.14.36-.28.09-.33.35-.72.77-.72s.66.35.75.65c.04.12.18.21.3.19.8-.13,3.03-.66,3.67-1.55.77-1.09,1.45-3.12,1.5-4.87-.5.62-1.2,1.03-2.11,1.22h0c-2.9.61-6.17.77-9.34.92-3.74.18-7.61.36-10.88,1.3-5.86,1.69-13.61,3.37-21.52,1.39-1.31-.33-3.22-1.15-4.49-2.41-.06.08-.09.17-.11.28-.05.34.1,1,1.09,2.2.48.58,2.13,1.61,2.72,1.95.02.01.06.03.09.02.03-.01.05-.04.06-.07.07-.17.28-.47.68-.47.57,0,.77.71.8.85.04.15.22.33.38.36l3.53.48c.12.01.3-.11.35-.24.07-.19.29-.51.69-.51ZM47.01,20.55h0,0ZM13.24,24.12c-2.36,0-4.79-.25-7.23-.86-2.07-.52-4.61-1.94-5.33-3.82-.38-1-.22-2.01.46-3.02.97-1.41,2.3-2,3.35-2.35.07-.02.14-.02.2-.01,1.74.4,3.86.46,5.72.5.63.02,1.24.03,1.8.06,4.2.2,8.44-.9,12.53-1.96,2.74-.72,5.58-1.83,8.2-3.22,1.56-.83,2.73-1.57,3.37-2.49.04-.05.08-.09.14-.12.15-.08.3-.16.44-.26.17-.12.4-.07.52.09,2.05,2.95,3.63,4.29,6.07,2.9.3-.17.55-.55.79-.92.34-.52.69-1.06,1.29-1.18.38-.08.79.03,1.25.34,1.13.76,1.64,3.51,1.8,4.66.38,2.62.95,6.59-2.61,7.35-2.78.59-5.92.74-8.95.88-3.58.17-7.29.34-10.42,1.25-3.81,1.1-8.44,2.19-13.39,2.19ZM4.62,14.8c-1.34.47-2.23,1.1-2.87,2.03-.54.79-.67,1.58-.38,2.34.66,1.75,3.24,2.97,4.82,3.37,7.41,1.86,14.71.27,20.24-1.32,3.21-.93,6.96-1.1,10.59-1.27,3.01-.14,6.11-.29,8.83-.87,2.66-.57,2.49-3.29,2.03-6.51h0c-.25-1.74-.81-3.69-1.48-4.15-.28-.19-.51-.27-.69-.23-.29.06-.55.45-.81.86-.27.42-.58.9-1.04,1.16-3.1,1.76-5.09-.36-6.84-2.83-.04.03-.09.05-.14.07-.74,1.01-1.97,1.79-3.58,2.64-2.67,1.42-5.56,2.55-8.36,3.28-4.15,1.08-8.44,2.2-12.76,1.99-.56-.03-1.16-.04-1.78-.06-1.87-.05-3.98-.1-5.77-.5ZM12.76,14.02c-.35,0-.71,0-1.06-.03-.55-.03-1.15-.04-1.77-.06-1.9-.05-4.04-.1-5.85-.52-.16-.04-.28-.18-.29-.34,0-.17.09-.32.25-.37.62-.21,1.26-.37,1.89-.52.52-.13,1.07-.26,1.58-.42,4.24-1.34,8.25-3.75,12.12-6.09.96-.58,1.92-1.16,2.88-1.72.56-.33,1.14-.71,1.76-1.11C26.16,1.6,28.31.19,30.54.01c2.5-.2,4.15,2.22,5.74,4.56l.36.52c.07.11.09.24.03.36-.6,1.31-1.96,2.24-3.96,3.3-2.66,1.41-5.54,2.54-8.32,3.27h0c-3.79.99-7.69,2-11.63,2ZM5.85,12.97c1.34.16,2.78.2,4.09.23.63.02,1.23.03,1.79.06,4.18.21,8.4-.89,12.47-1.95h0c2.73-.71,5.55-1.82,8.16-3.2,1.72-.91,2.98-1.74,3.54-2.77l-.23-.34c-1.54-2.26-3-4.4-5.07-4.23-2.04.16-4.1,1.52-5.92,2.71-.62.41-1.21.79-1.79,1.13-.96.56-1.92,1.14-2.87,1.71-3.91,2.36-7.96,4.79-12.28,6.16-.53.17-1.08.3-1.62.44-.09.02-.17.04-.26.06ZM24.3,11.66h0,0Z"/>
  </g>
</svg>