<?xml version="1.0" encoding="UTF-8"?>
<svg id="Layer_2" data-name="Layer 2" xmlns="http://www.w3.org/2000/svg" viewBox="0 0 39.68 43.35">
  <g id="layer">
    <g>
      <path d="M13.48,43.35c-.48,0-.95-.04-1.41-.14C4.23,41.47,0,32.05,0,24.07c0-5.49,2.36-10.12,6.31-12.39,3.57-2.05,7.92-1.87,12.31.48-.47-3.4.47-6.74,2.7-9.49.18-.22.44-.36.72-.39.29-.03.56.06.78.24.45.37.52,1.05.15,1.51-2,2.46-2.75,5.31-2.2,8.28,4.48-2.49,8.93-2.72,12.57-.63,3.96,2.26,6.32,6.9,6.32,12.39,0,7.98-4.23,17.4-12.07,19.14-1.54.34-3.23.01-5.01-.33-.88-.17-1.79-.35-2.75-.46-.96.12-1.87.29-2.76.46-1.26.24-2.46.48-3.6.48ZM11.7,11.01c-1.79,0-3.48.44-5.01,1.32C2.96,14.46.74,18.85.74,24.07c0,7.8,4.3,16.82,11.49,18.42,1.39.31,2.93,0,4.71-.34.91-.18,1.85-.36,2.85-.48.03,0,.06,0,.09,0,1.01.12,1.94.3,2.85.48,1.79.34,3.33.64,4.71.34,7.19-1.59,11.49-10.62,11.49-18.42,0-5.23-2.22-9.62-5.95-11.75-3.52-2.01-7.88-1.7-12.27.88-.1.06-.23.07-.33.02-.11-.05-.19-.14-.22-.26-.79-3.38-.01-6.63,2.24-9.4.12-.14.09-.35-.05-.47-.07-.06-.15-.08-.24-.07-.09,0-.16.05-.22.12-2.29,2.82-3.13,6.16-2.42,9.65.03.14-.03.29-.15.38-.12.08-.28.09-.4.02-2.47-1.45-4.93-2.18-7.24-2.18Z"/>
      <path d="M17.66,7.04c-1.16,0-2.63-.22-3.79-1.1h0c-2.25-1.72-2.42-5.2-2.43-5.35,0-.18.11-.33.28-.38.14-.03,3.52-.82,5.78.89,2.25,1.71,2.42,5.2,2.43,5.35,0,.18-.11.33-.28.38-.07.02-.9.21-1.99.21ZM14.32,5.35c1.61,1.22,4,.97,4.84.82-.1-.86-.5-3.25-2.11-4.47-1.61-1.22-3.99-.97-4.84-.82.1.86.5,3.25,2.11,4.47h0Z"/>
    </g>
  </g>
</svg>