<?xml version="1.0" encoding="UTF-8"?>
<svg id="Layer_2" data-name="Layer 2" xmlns="http://www.w3.org/2000/svg" viewBox="0 0 54.4 37.24">
  <g id="layer">
    <g>
      <path d="M36.07,37.24h-17.39c-2.39,0-4.33-1.94-4.33-4.33V4.33c0-2.39,1.94-4.33,4.33-4.33h17.39c2.39,0,4.33,1.94,4.33,4.33v28.59c0,2.39-1.94,4.33-4.33,4.33ZM18.68.74c-1.98,0-3.59,1.61-3.59,3.59v28.59c0,1.98,1.61,3.59,3.59,3.59h17.39c1.98,0,3.59-1.61,3.59-3.59V4.33c0-1.98-1.61-3.59-3.59-3.59h-17.39ZM28.79,34.87h-3.06c-1.42,0-2.57-1.15-2.57-2.57s1.15-2.57,2.57-2.57h3.06c1.42,0,2.57,1.15,2.57,2.57s-1.15,2.57-2.57,2.57ZM25.72,30.47c-1.01,0-1.83.82-1.83,1.83s.82,1.83,1.83,1.83h3.06c1.01,0,1.83-.82,1.83-1.83s-.82-1.83-1.83-1.83h-3.06ZM34.99,34.13h-.56c-1,0-1.82-.82-1.82-1.82s.82-1.82,1.82-1.82h.56c1,0,1.82.82,1.82,1.82s-.82,1.82-1.82,1.82ZM34.43,31.22c-.6,0-1.08.49-1.08,1.08s.49,1.08,1.08,1.08h.56c.6,0,1.08-.49,1.08-1.08s-.49-1.08-1.08-1.08h-.56ZM20.15,34.13h-.56c-1,0-1.82-.82-1.82-1.82s.82-1.82,1.82-1.82h.56c1,0,1.82.82,1.82,1.82s-.82,1.82-1.82,1.82ZM19.59,31.22c-.6,0-1.08.49-1.08,1.08s.49,1.08,1.08,1.08h.56c.6,0,1.08-.49,1.08-1.08s-.49-1.08-1.08-1.08h-.56ZM36.07,28.27h-17.39c-.69,0-1.25-.56-1.25-1.25V3.63c0-.69.56-1.25,1.25-1.25h17.39c.69,0,1.25.56,1.25,1.25v23.39c0,.69-.56,1.25-1.25,1.25ZM18.68,3.12c-.28,0-.51.23-.51.51v23.39c0,.28.23.51.51.51h17.39c.28,0,.51-.23.51-.51V3.63c0-.28-.23-.51-.51-.51h-17.39Z"/>
      <g>
        <g>
          <path d="M26.96,5.02c-.17,0-.4,0-.64.04-1.33.22-2.03,1.19-2.18,2.23h.03c.3-.4.82-.72,1.51-.72,1.11,0,1.89.8,1.89,2.02,0,1.15-.78,2.21-2.08,2.21s-2.22-1.04-2.22-2.67c0-1.23.44-2.21,1.06-2.82.52-.51,1.21-.83,2-.93.25-.04.46-.05.62-.05v.69ZM26.72,8.64c0-.9-.51-1.44-1.29-1.44-.51,0-.98.32-1.21.77-.06.1-.1.22-.1.38.02,1.03.49,1.79,1.38,1.79.73,0,1.22-.61,1.22-1.5Z"/>
          <path d="M28.25,9.1c0-.79.47-1.35,1.24-1.68v-.03c-.7-.33-1-.87-1-1.41,0-.99.84-1.67,1.94-1.67,1.21,0,1.82.76,1.82,1.54,0,.53-.26,1.1-1.03,1.47v.03c.78.31,1.26.86,1.26,1.62,0,1.09-.94,1.82-2.13,1.82-1.31,0-2.1-.78-2.1-1.7ZM31.62,9.06c0-.76-.53-1.13-1.38-1.37-.73.21-1.13.69-1.13,1.29-.03.64.45,1.19,1.25,1.19s1.25-.47,1.25-1.12ZM29.29,5.93c0,.63.47.96,1.2,1.16.54-.18.95-.57.95-1.14,0-.5-.3-1.02-1.06-1.02-.7,0-1.09.46-1.09,1Z"/>
        </g>
        <g>
          <path d="M26,13.36h0c.05-.06.11-.14.16-.21l.54-.63h.4l-.71.75.81,1.08h-.4l-.63-.88-.17.19v.69h-.33v-2.68h.33v1.69Z"/>
          <path d="M27.51,13.02c0-.19,0-.34-.02-.5h.29l.02.29h.01c.1-.17.27-.34.57-.34.25,0,.44.15.52.37h0c.06-.1.13-.18.2-.24.11-.08.23-.13.4-.13.24,0,.6.16.6.79v1.08h-.33v-1.04c0-.35-.13-.56-.4-.56-.19,0-.34.14-.39.3-.02.05-.03.11-.03.17v1.13h-.32v-1.1c0-.29-.13-.5-.38-.5-.21,0-.36.17-.41.33-.02.05-.03.11-.03.16v1.1h-.33v-1.33Z"/>
        </g>
      </g>
      <g>
        <g>
          <path d="M23.6,21.77c.24.15.8.4,1.39.4,1.09,0,1.43-.69,1.42-1.21-.01-.88-.8-1.25-1.62-1.25h-.47v-.64h.47c.62,0,1.4-.32,1.4-1.06,0-.5-.32-.94-1.1-.94-.5,0-.98.22-1.25.41l-.22-.62c.33-.24.96-.48,1.64-.48,1.23,0,1.79.73,1.79,1.49,0,.65-.39,1.2-1.16,1.47v.02c.77.15,1.4.73,1.4,1.61,0,1-.78,1.88-2.28,1.88-.7,0-1.32-.22-1.63-.42l.23-.66Z"/>
          <path d="M32.51,19.54c0,2.13-.79,3.31-2.18,3.31-1.22,0-2.05-1.15-2.07-3.22,0-2.1.91-3.26,2.18-3.26s2.07,1.18,2.07,3.17ZM29.11,19.64c0,1.63.5,2.55,1.27,2.55.87,0,1.28-1.01,1.28-2.61s-.4-2.55-1.27-2.55c-.74,0-1.28.91-1.28,2.61Z"/>
        </g>
        <g>
          <path d="M24.31,25.37h0c.05-.06.11-.14.16-.21l.54-.63h.4l-.71.75.81,1.08h-.4l-.63-.88-.17.19v.69h-.33v-2.68h.33v1.69Z"/>
          <path d="M25.81,25.03c0-.19,0-.34-.02-.5h.29l.02.29h.01c.1-.17.27-.34.57-.34.25,0,.44.15.52.37h0c.06-.1.13-.18.2-.24.11-.08.23-.13.4-.13.24,0,.6.16.6.79v1.08h-.33v-1.04c0-.35-.13-.56-.4-.56-.19,0-.34.14-.39.3-.02.05-.03.11-.03.17v1.13h-.33v-1.1c0-.29-.13-.5-.38-.5-.21,0-.36.17-.41.33-.02.05-.03.11-.03.16v1.1h-.33v-1.33Z"/>
          <path d="M28.69,26.52l1.05-2.74h.26l-1.06,2.74h-.25Z"/>
          <path d="M30.26,23.68h.33v1.14h0c.05-.09.14-.18.24-.23.1-.06.22-.09.34-.09.25,0,.64.15.64.78v1.09h-.33v-1.05c0-.29-.11-.54-.42-.54-.22,0-.39.15-.45.33-.02.05-.02.09-.02.16v1.1h-.33v-2.68Z"/>
        </g>
      </g>
      <path d="M12.8,28.94H.37c-.2,0-.37-.17-.37-.37V8.26c0-.2.17-.37.37-.37h12.43c.2,0,.37.17.37.37v20.3c0,.2-.17.37-.37.37ZM.74,28.2h11.69V8.64H.74v19.56Z"/>
      <path d="M54.03,29.04h-12.06c-.2,0-.37-.17-.37-.37V8.37c0-.2.17-.37.37-.37h12.06c.2,0,.37.17.37.37v20.3c0,.2-.17.37-.37.37ZM42.34,28.3h11.31V8.74h-11.31v19.56Z"/>
    </g>
  </g>
</svg>