<?xml version="1.0" encoding="UTF-8"?>
<svg id="Layer_2" data-name="Layer 2" xmlns="http://www.w3.org/2000/svg" viewBox="0 0 43.97 44.2">
  <g id="layer">
    <g>
      <path d="M14.83,44.2c-2.63,0-5.29-.68-7.76-2.03C3.17,40.04.41,36.57.06,33.34c0-.02,0-.04,0-.06-.01-.06-.02-.11-.02-.15-.25-2.14.99-4.1,3.4-5.38,5.78-3.08,11.33-3.07,18.41-2.06,4.11.59,6.12.57,9.44.54h1.45c2.65,0,7.5.99,7.73,3.08,0,.03,0,.1,0,.12.42,5.48-2.6,6.61-8.61,8.85-2.73,1.02-6.13,2.28-10.22,4.31-2.16,1.07-4.48,1.61-6.82,1.61ZM.79,33.27c.34,3,2.94,6.23,6.63,8.25,4.45,2.43,9.52,2.58,13.89.41h0c4.12-2.04,7.54-3.32,10.29-4.34,6.01-2.24,8.5-3.17,8.12-8.11,0-.02,0-.09,0-.11-.15-1.26-3.98-2.4-6.92-2.4-.02,0-.04,0-.07,0h-1.45c-3.36.04-5.39.06-9.55-.54-6.93-.99-12.35-1-17.96,1.98-2.16,1.15-3.23,2.79-3.01,4.64l.02.14s0,.06,0,.08Z"/>
      <path d="M11.54,37.5c-2.06,0-4.05-.31-6.11-.94-2.22-.68-3.55-1.99-3.74-3.7-.2-1.7.8-3.23,2.81-4.3,2.4-1.27,4.76-2.01,7.43-2.3,2.63-.29,5.62-.16,9.71.42,4,.57,5.94.55,9.17.53h1.4s.04-.01.06-.01c2.75,0,6.37,1.06,6.5,2.2.13,1.14-3.21,2.85-5.9,3.35l-1.38.25c-3.13.57-5.02.91-8.85,2.22-3.53,1.21-6.19,1.87-8.62,2.14h0c-.84.09-1.66.14-2.47.14ZM13.96,36.99h0,0ZM14.79,26.85c-.99,0-1.9.05-2.78.15-2.57.29-4.85.99-7.16,2.22-1.72.92-2.58,2.18-2.42,3.56.15,1.4,1.3,2.49,3.22,3.07,2.77.84,5.41,1.09,8.28.77h0c2.38-.27,4.99-.92,8.46-2.11,3.89-1.33,5.79-1.68,8.95-2.25l1.39-.25c2.82-.52,5.21-2.08,5.3-2.56-.18-.42-2.89-1.52-5.81-1.52h-1.4c-3.27.04-5.24.05-9.29-.52-2.65-.38-4.83-.56-6.74-.56Z"/>
      <path d="M10.61,35.36c-.12,0-.24,0-.36,0-1.51-.04-3.51-.37-4.39-1.68-.42-.62-.6-1.4-.56-2.32.14-2.86,3.19-5.03,6.79-4.86,3.6.18,6.41,2.65,6.27,5.51-.03.56-.07.78-.43,1.27-.84,1.11-4.32,2.09-7.31,2.09ZM11.66,27.22c-3.03,0-5.52,1.81-5.63,4.17-.04.75.11,1.38.43,1.87.55.82,1.9,1.3,3.8,1.35,3.01.08,6.4-.92,7.06-1.79.25-.33.26-.4.28-.86.12-2.45-2.38-4.57-5.57-4.73-.13,0-.25,0-.38,0Z"/>
      <path d="M31.87,40.65c-.45,0-.9-.02-1.37-.06-.4-.04-2.57-.39-2.89-.44-.11-.02-.2-.09-.26-.18l-.06-.11c-.05-.09-.06-.2-.03-.31.04-.1.11-.18.21-.22,1.34-.53,2.57-1,3.71-1.43,6.29-2.37,9.17-3.45,8.79-8.45,0-.02,0-.09,0-.11-.15-1.26-3.97-2.4-6.92-2.4-.02,0-.05,0-.07,0h-1.45c-3.36.04-5.39.06-9.55-.54-.46-.07-1.21-.13-1.86-.18l-.43-.04c-.12-.01-.23-.08-.29-.19-.04-.08-.08-.2-.06-.29.49-2.24,1.83-5.43,3.58-8.55,2.16-3.83,2.65-5.78,3.48-9.02.11-.45.23-.92.37-1.43C27.53,3.77,30.81-.28,34.19.02c3.39.31,5.87,4.89,6.09,7.92.04.53.07,1.02.1,1.48.23,3.4.36,5.28,1.79,9.49h0c2.48,7.27,2.96,12.92-2.31,18.6-1.88,2.03-4.74,3.14-8,3.14ZM28.83,39.59c.72.12,1.54.24,1.74.26,3.58.33,6.77-.7,8.75-2.84,5.04-5.44,4.61-10.67,2.15-17.86h0c-1.47-4.3-1.61-6.33-1.83-9.68-.03-.46-.06-.95-.1-1.48-.2-2.7-2.46-6.97-5.42-7.24-2.95-.26-5.95,3.52-6.63,6.14-.13.51-.25.98-.36,1.43-.84,3.3-1.34,5.29-3.55,9.2-1.62,2.87-2.87,5.81-3.41,7.95h.02c.7.06,1.42.12,1.9.19,4.11.59,6.12.57,9.44.54h1.45c2.63-.01,7.49.99,7.73,3.08,0,.03,0,.1,0,.12.42,5.54-3.02,6.83-9.27,9.18-.82.31-1.69.64-2.62,1ZM34.48,3.38c-.18,0-.37-.02-.57-.06h0c-1.01-.2-1.68-.82-1.56-1.46.03-.15.1-.26.15-.33.06-.08.13-.15.21-.2.21-.37.8-.48,1.37-.43.49.05,1.05.23,1.24.58.44.29.66.68.58,1.07-.1.51-.67.82-1.42.82ZM34.05,2.6c.65.13,1.1-.06,1.12-.18,0-.04-.07-.2-.35-.36-.09-.05-.15-.13-.17-.22-.07-.05-.28-.15-.64-.19-.34-.03-.57.03-.66.06-.03.08-.09.15-.17.2-.04.02-.07.05-.1.08-.04.13.3.48.96.61ZM34.64,1.76h0s0,0,0,0Z"/>
    </g>
  </g>
</svg>