<?xml version="1.0" encoding="UTF-8"?>
<svg id="Layer_2" data-name="Layer 2" xmlns="http://www.w3.org/2000/svg" viewBox="0 0 26.77 49.75">
  <g id="layer">
    <path d="M19.46,49.75H7.32c-4.03,0-7.32-3.24-7.32-7.22V14.5c0-3.98,3.28-7.22,7.32-7.22h12.14c4.03,0,7.32,3.24,7.32,7.22v28.03c0,3.98-3.28,7.22-7.32,7.22ZM7.32,8.02c-3.63,0-6.57,2.91-6.57,6.48v28.03c0,3.57,2.95,6.48,6.57,6.48h12.14c3.63,0,6.58-2.91,6.58-6.48V14.5c0-3.57-2.95-6.48-6.58-6.48H7.32ZM10.57,44.73c-.44,0-.89-.08-1.32-.25-.89-.35-1.59-1.03-1.97-1.91-.38-.88-.4-1.85-.05-2.74.35-.89,1.03-1.59,1.91-1.97l4.13-1.8c.09-.04.19-.04.29,0,.09.04.17.11.2.2l2.48,5.93c.08.19,0,.4-.19.48l-4.05,1.76c-.46.2-.94.3-1.43.3ZM13.22,36.89l-3.79,1.65c-.7.3-1.23.86-1.51,1.57-.28.71-.27,1.48.04,2.18.3.7.86,1.23,1.57,1.51.71.28,1.48.26,2.18-.04l3.72-1.62-2.2-5.25ZM17.23,42.13s-.09,0-.14-.03c-.09-.04-.17-.11-.2-.2l-2.48-5.93c-.08-.19,0-.4.19-.48l4.05-1.76c.88-.38,1.85-.4,2.74-.05.89.35,1.59,1.03,1.97,1.91.38.88.4,1.85.05,2.75-.35.89-1.03,1.59-1.91,1.97l-4.14,1.8s-.1.03-.15.03ZM15.23,36.02l2.2,5.25,3.79-1.65c.7-.3,1.24-.86,1.51-1.57.28-.71.26-1.48-.04-2.18-.3-.7-.86-1.23-1.57-1.51-.71-.28-1.48-.26-2.18.04h0l-3.72,1.62ZM18.8,34.06h0,0ZM9.44,34.87c-1.32,0-2.64-.47-3.72-1.41-.15-.13-.17-.37-.04-.52.13-.16.37-.17.52-.04.03.03.06.05.09.07l7.05-6.74s-.04-.06-.07-.09c-.13-.16-.1-.39.06-.52.16-.13.39-.1.52.06,1.84,2.3,1.62,5.57-.51,7.61-1.1,1.05-2.5,1.58-3.9,1.58ZM6.91,33.42c1.87,1.13,4.29.9,5.92-.66,1.64-1.57,1.97-3.97.92-5.89l-6.85,6.55ZM5.31,32.87c-.11,0-.22-.05-.29-.14-.09-.12-.18-.24-.26-.36,0-.01-.02-.02-.02-.03-1.52-2.28-1.19-5.32.79-7.21,1.98-1.9,5.03-2.1,7.24-.48,0,0,.02.01.03.02.12.09.24.18.35.28.15.13.17.37.04.52-.13.15-.37.17-.52.04-.03-.02-.06-.05-.09-.07l-7.05,6.74s.05.06.07.09c.13.16.1.39-.06.52-.07.05-.15.08-.23.08ZM9.43,24.3c-1.23,0-2.45.46-3.39,1.36-1.61,1.54-1.97,3.96-.92,5.89l6.84-6.55c-.78-.47-1.66-.7-2.53-.7ZM17.75,24.83c-.66,0-1.31-.18-1.88-.54l-3.83-2.38c-.08-.05-.14-.14-.17-.23-.02-.1,0-.2.05-.28l3.47-5.42c.11-.17.34-.22.51-.12l3.76,2.33h0c1.68,1.04,2.2,3.26,1.16,4.94-.5.81-1.3,1.38-2.23,1.6-.27.06-.55.1-.82.1ZM12.74,21.48l3.51,2.18c.65.4,1.41.53,2.15.35.74-.17,1.37-.62,1.77-1.27.83-1.33.42-3.09-.92-3.92l-3.45-2.14-3.07,4.79ZM10.99,21.2c-.07,0-.13-.02-.2-.06l-3.76-2.33c-.81-.51-1.38-1.3-1.6-2.23-.22-.93-.06-1.89.44-2.71.5-.81,1.3-1.38,2.23-1.6.93-.22,1.89-.06,2.71.44l3.83,2.38c.08.05.14.14.17.23.02.1,0,.2-.05.28l-3.46,5.42c-.07.11-.19.17-.31.17ZM8.94,12.92c-.22,0-.44.02-.65.08-.74.17-1.37.62-1.77,1.27-.4.65-.53,1.41-.35,2.15.17.74.62,1.37,1.27,1.77l3.45,2.14,3.07-4.79-3.51-2.18c-.46-.28-.97-.43-1.5-.43ZM22.4,6.73H4.34c-.2,0-.37-.17-.37-.37V.37c0-.2.17-.37.37-.37h18.05c.2,0,.37.17.37.37v5.99c0,.2-.17.37-.37.37ZM4.71,5.99h17.31V.74H4.71v5.25Z"/>
  </g>
</svg>