<?xml version="1.0" encoding="UTF-8"?>
<svg id="Layer_2" data-name="Layer 2" xmlns="http://www.w3.org/2000/svg" viewBox="0 0 60.46 35.47">
  <g id="layer">
    <path d="M49.13,35.47c-5.76,0-10.53-4.24-11.24-9.91h-4.21c-.41,1.01-1.23,1.77-2.25,2.12v.57h.43c.39,0,.7.38.7.86s-.31.86-.7.86h-3.26c-.4,0-.71-.38-.71-.86s.31-.86.71-.86h.43v-.57c-1.51-.51-2.55-1.93-2.55-3.54,0-.71.2-1.4.59-2.01l-10.02-11.29-.91,3.04c3.98,1.87,6.53,5.86,6.53,10.26,0,6.25-5.08,11.33-11.33,11.33S0,30.39,0,24.14s5.08-11.33,11.33-11.33c.69,0,1.4.07,2.1.2l3.06-10.17h-5.97c-.3,0-.53.24-.53.53v2.28c0,.29.24.53.53.53h1.62c.78,0,1.42.64,1.42,1.42s-.64,1.42-1.42,1.42h-1.62c-.1,0-.19,0-.29-.03-1.71-.12-3.09-1.59-3.09-3.34v-2.28c0-1.86,1.51-3.37,3.37-3.37h8.84c.2,0,.37.17.37.37v.57c.11.29.12.6.03.89l-.03.09v.54c0,.17-.11.31-.27.36l-1.41,4.69h21.61v-.97h-3.9c-.76,0-1.37-.62-1.37-1.37s.62-1.37,1.37-1.37h8.35c.76,0,1.37.62,1.37,1.37s-.62,1.37-1.37,1.37h-1.61v1.26l2.86,5.67c1.22-.44,2.49-.66,3.77-.66,6.25,0,11.33,5.08,11.33,11.33s-5.08,11.33-11.33,11.33ZM33.42,24.82h4.8c.19,0,.35.15.37.34.52,5.46,5.05,9.58,10.54,9.58,5.84,0,10.59-4.75,10.59-10.59s-4.75-10.59-10.59-10.59c-1.3,0-2.58.24-3.81.72-.18.07-.38,0-.47-.18l-3.05-6.04c-.03-.05-.04-.11-.04-.17v-1.72c0-.2.17-.37.37-.37h1.98c.35,0,.63-.28.63-.63s-.28-.63-.63-.63h-8.35c-.35,0-.63.28-.63.63s.28.63.63.63h4.27c.2,0,.37.17.37.37v1.72c0,.2-.17.37-.37.37h-22.48c-.12,0-.23-.06-.3-.15-.07-.09-.09-.22-.06-.33l1.63-5.41c.03-.09.09-.17.16-.21v-.28s0-.07.02-.11l.04-.15c.06-.19.02-.35-.03-.46-.02-.05-.03-.1-.03-.15v-.27h-8.47c-1.45,0-2.63,1.18-2.63,2.63v2.28c0,1.37,1.07,2.51,2.45,2.61.09.02.14.02.19.02h1.62c.37,0,.68-.3.68-.68s-.3-.68-.68-.68h-1.62c-.7,0-1.28-.57-1.28-1.28v-2.28c0-.7.57-1.27,1.28-1.27h6.47c.12,0,.23.06.3.15.07.09.09.22.06.33l-3.3,10.97c-.06.19-.25.29-.43.26-.76-.17-1.53-.25-2.28-.25C5.49,13.55.74,18.3.74,24.14s4.75,10.59,10.59,10.59,10.59-4.75,10.59-10.59c0-4.22-2.51-8.03-6.38-9.71-.17-.07-.26-.27-.21-.45l1.2-3.98c.04-.13.14-.23.28-.26.13-.03.27.02.36.12l10.65,12c.12.13.12.33.02.47-.41.53-.62,1.16-.62,1.81,0,1.37.93,2.57,2.27,2.91.16.04.28.19.28.36v1.22c0,.2-.17.37-.37.37h-.74s-.02.06-.02.12.01.09.02.12h3.14s.02-.06.02-.12-.01-.09-.02-.12h-.74c-.2,0-.37-.17-.37-.37v-1.22c0-.17.12-.32.28-.36,1-.25,1.78-.99,2.1-1.97.05-.15.19-.26.35-.26ZM49.13,32.62c-4.24,0-7.86-3.18-8.4-7.39-.01-.11.02-.21.09-.29.07-.08.17-.13.28-.13h9.17l-4.13-8.17c-.05-.1-.05-.21-.01-.31.04-.1.12-.18.22-.21.91-.32,1.84-.48,2.78-.48,4.68,0,8.48,3.81,8.48,8.48s-3.81,8.48-8.48,8.48ZM41.53,25.56c.67,3.63,3.87,6.32,7.6,6.32,4.27,0,7.74-3.47,7.74-7.74s-3.47-7.74-7.74-7.74c-.71,0-1.43.1-2.13.31l4.2,8.32c.06.12.05.25-.02.36-.07.11-.19.18-.32.18h-9.34ZM11.33,32.62c-4.68,0-8.48-3.81-8.48-8.48,0-5.2,4.73-9.36,10.09-8.33.1.02.19.08.25.17.05.09.07.2.04.3l-2.3,7.66c-.11.36.1.74.46.84.34.11.74-.11.84-.45l2.29-7.6c.03-.1.11-.19.21-.23.1-.04.21-.04.31,0,2.96,1.43,4.8,4.36,4.8,7.63,0,4.68-3.8,8.48-8.48,8.48ZM11.33,16.4c-4.27,0-7.74,3.47-7.74,7.74s3.47,7.74,7.74,7.74,7.74-3.47,7.74-7.74c0-2.84-1.52-5.4-3.99-6.76l-2.16,7.17c-.18.6-.73,1.01-1.36,1.01-.14,0-.28-.02-.41-.06-.74-.22-1.17-1.02-.95-1.76l2.18-7.26c-.36-.05-.71-.08-1.06-.08ZM47.39,23.46h-6.29c-.11,0-.21-.05-.28-.13-.07-.08-.1-.19-.09-.29.3-2.33,1.58-4.45,3.5-5.82.09-.06.2-.08.3-.06.1.02.19.09.24.19l2.95,5.56c.06.11.06.25-.01.36-.07.11-.19.18-.32.18ZM41.53,22.72h5.24l-2.45-4.64c-1.46,1.16-2.45,2.81-2.79,4.64ZM38.22,23.46h-4.8c-.16,0-.3-.1-.35-.25-.06-.19-.15-.38-.24-.55-.07-.12-.06-.28.02-.39l7.82-11.51c.07-.11.2-.17.33-.16.13,0,.25.08.31.2l2.14,4.03c.09.17.04.38-.12.48-2.69,1.78-4.41,4.63-4.72,7.82-.02.19-.18.34-.37.34ZM33.67,22.72h4.21c.4-3.17,2.1-6,4.73-7.85l-1.69-3.2-7.35,10.82c.04.07.07.15.1.23ZM31.57,21.42c-.05,0-.1-.01-.15-.03-.15-.07-.3-.11-.46-.15-.16-.04-.28-.19-.28-.36v-1.44c0-.2.17-.37.37-.37h.3s-2.26,0-2.26,0h0s.3,0,.3,0c.2,0,.37.17.37.37v1.44c0,.17-.11.32-.28.36-.14.04-.39.03-.49-.08l-9.7-10.93c-.1-.11-.12-.27-.06-.4s.19-.22.34-.22h19.52c.14,0,.26.08.33.2.06.12.06.27-.02.38l-7.52,11.07c-.07.1-.19.16-.31.16ZM31.42,20.59s0,0,0,0l6.96-10.25h-17.99l7.98,9c-.03-.09-.05-.19-.05-.29,0-.42.28-.74.63-.74h2.51c.35,0,.63.33.63.74s-.28.75-.63.75h-.05v.79ZM28.75,19.76l.27.3v-.26h-.05c-.08,0-.15-.01-.21-.04Z"/>
  </g>
</svg>