<?xml version="1.0" encoding="UTF-8"?>
<svg id="Layer_2" data-name="Layer 2" xmlns="http://www.w3.org/2000/svg" viewBox="0 0 42.73 43.35">
  <g id="layer">
    <g>
      <path d="M38.72,43.35H4.01c-1.61,0-2.92-1.28-2.92-2.84L0,6.23c0-1.58,1.31-2.86,2.92-2.86h7.76c.14,0,.27.08.33.21.06.13.04.28-.05.39-.58.72-.88,1.47-.88,2.24,0,3.22,5.06,5.84,11.29,5.84s11.29-2.62,11.29-5.84c0-.77-.3-1.52-.88-2.24-.09-.11-.11-.26-.05-.39.06-.13.19-.21.33-.21h7.76c1.61,0,2.92,1.28,2.92,2.85l-1.09,34.3c0,1.56-1.31,2.83-2.92,2.83ZM2.92,4.12c-1.2,0-2.18.94-2.18,2.1l1.09,34.28c0,1.17.98,2.12,2.18,2.12h34.71c1.2,0,2.18-.94,2.18-2.1l1.09-34.3c0-1.15-.98-2.09-2.18-2.09h-7.04c.41.67.62,1.38.62,2.1,0,3.63-5.4,6.58-12.03,6.58s-12.03-2.95-12.03-6.58c0-.73.21-1.43.62-2.1H2.92Z"/>
      <path d="M34.9,39.29H7.83c-1.32,0-2.39-1.05-2.39-2.33l-1.09-27.17c0-.63.25-1.21.69-1.65.09-.08.21-.12.32-.1.12.02.22.1.27.21,1.81,3.79,8.27,6.44,15.73,6.44s13.92-2.65,15.72-6.44c.05-.11.15-.19.27-.21.12-.02.24.02.32.1.45.44.7,1.02.7,1.64l-1.09,27.19c0,1.28-1.07,2.32-2.39,2.32ZM5.26,9.09c-.11.21-.16.45-.16.69l1.09,27.17c0,.89.74,1.61,1.65,1.61h27.07c.91,0,1.65-.71,1.65-1.59,0,0,0,0,0-.01l1.09-27.18c0-.23-.06-.46-.16-.67-2.24,3.76-8.72,6.33-16.11,6.33s-13.87-2.58-16.11-6.33Z"/>
      <path d="M21.37,11.55c-6,0-10.7-2.54-10.7-5.78S15.37,0,21.37,0s10.7,2.54,10.7,5.78-4.7,5.78-10.7,5.78ZM21.37.74c-5.49,0-9.96,2.26-9.96,5.04s4.47,5.03,9.96,5.03,9.96-2.26,9.96-5.03S26.86.74,21.37.74Z"/>
      <path d="M21.9,8.3c0,.29-.24.53-.53.53s-.53-.24-.53-.53c0-.23.15-.43.36-.5v-2.38c0-.1.08-.17.17-.17s.17.08.17.17v2.38c.21.07.36.27.36.5Z"/>
      <g>
        <path d="M21.74,2.82v1.06c0,.21-.17.37-.38.37s-.38-.17-.38-.37v-1.06c0-.21.17-.37.38-.37s.38.17.38.37Z"/>
        <path d="M24.48,3.05c.04.09.04.19.01.29l-.37.99c-.05.15-.2.24-.35.24-.04,0-.08,0-.13-.02-.1-.03-.17-.1-.22-.2-.04-.09-.05-.19-.01-.29l.37-.99c.07-.19.29-.29.48-.22.1.04.18.11.22.2Z"/>
        <path d="M26.76,4.06c0,.1-.03.2-.1.27l-.72.79c-.07.08-.17.12-.28.12-.09,0-.18-.03-.24-.09-.08-.07-.13-.16-.13-.26,0-.1.03-.2.1-.27l.72-.79c.13-.15.38-.16.53-.03.08.07.12.16.13.26Z"/>
        <path d="M19.32,4.07c.04.09.03.2-.01.29-.04.09-.12.16-.22.19-.04.02-.08.02-.13.02-.16,0-.3-.1-.35-.24l-.37-.99c-.03-.09-.03-.19.01-.28.04-.09.12-.16.21-.2.21-.07.41.04.48.22l.37.99Z"/>
        <path d="M17.36,4.62c.07.07.1.17.1.27,0,.1-.05.19-.13.26-.07.06-.16.09-.25.09-.1,0-.21-.04-.28-.12l-.72-.79c-.07-.07-.1-.17-.1-.27,0-.1.05-.19.13-.26.15-.13.39-.11.53.03l.72.79Z"/>
      </g>
    </g>
  </g>
</svg>