<?xml version="1.0" encoding="UTF-8"?>
<svg id="Layer_2" data-name="Layer 2" xmlns="http://www.w3.org/2000/svg" viewBox="0 0 46.89 66.85">
  <g id="layer">
    <path d="M5.87,66.85c-.07,0-.14-.02-.2-.06-1.06-.7-2.04-1.74-2.98-3.17-.56-.85-1.06-1.81-1.53-2.95-.26-.62-.87-2.11-1.11-2.75-.08-.21-.05-.46.08-.68.31-.52,1.1-.91,2.12-1.05.62-.09,1.24-.17,1.68-.02,0-.09.05-.17.12-.24,2.25-2.11,3.11-3.54,3.86-4.8.51-.85.99-1.65,1.81-2.55.76-.85,2.23-1.7,3.65-2.53,1.43-.84,2.92-1.71,3.55-2.49.72-2.07,1.5-3.64,2.18-5.02.57-1.15,1.06-2.15,1.34-3.1-.21-2.78.54-5.18,2.23-7.14.52-1.31.73-2.73.66-4.44-2.59-.49-7.17-2.92-8.28-3.92-.41-.37-.6-.74-.59-1.13.02-.75.75-1.35,1.87-2.25.36-.29.75-.61,1.17-.97,2.22-2.02,4.3-2.85,6.13-3.59l.39-.16c.62-.54,1.3-.86,1.85-1.12.25-.12.47-.22.61-.32.26-.66.3-1.31.3-1.71-1.32-1.79-1.82-3.49-1.51-5.05.26-1.28,1.12-2.46,2.3-3.14,1.34-.78,3.72-.62,5.3.36.96.59,1.46,1.4,1.4,2.28,0,.04-.01.07-.02.11-.03.08-.07.15-.11.22.03.04.05.09.06.14.13.74.03,1.86-.13,2.67.04.13.09.29.14.47.13.42.28.9.32,1.08.02.1,0,.25-.06.33-.04.06-.14.21-.58.34-.13,1.34-.26,2.24-1.05,2.24-.17-.02-.74-.05-1.54-.27l-.16.9s-.01.06-.03.08c.49.25.97.56,1.36.96.85.71,1.39,2.01,1.44,3.56l.08.19c.34.81,1.21,2.89,1.98,4.98.19-.06.4-.11.61-.16.63-.16,1.28-.33,1.7-.67.46-.39.87-.96,1.15-1.42-.03-.14-.06-.29-.09-.44-.15-.7-.33-1.49.05-2.07.06-.09.12-.18.93-.44.02-.02.05-.07.09-.11.24-.3.73-.91,1.3-.53,1.16.66,1.74,1.29,1.8,1.98.06.74-.57,2.26-1.69,3.45-3.93,6.37-5.1,6.35-5.52,6.2-.92-.04-2.64-.81-4.24-2.77.18.24.37.47.56.69.08.09.11.22.08.34-.61,2.27-1.25,4.34-1.5,5.13l-.38,1.9c3.11,3.82,6.52,10.61,6.79,13.58.34,1.44.59,3.24.84,5.16.41,3.05.87,6.5,1.89,9.12.07-.04.15-.08.24-.11.57-.18,1.05.4,1.51.95.2.24.43.52.57.59.39.22,1.65.39,2.69.45h0c.56.03,1,.22,1.27.53.22.26.32.6.28.98-.01.11-.07.2-.16.27-1.04.73-2.36,1.26-4.04,1.62-.99.21-2.07.33-3.3.36-.68.02-2.29.05-2.96.04-.23,0-.45-.12-.61-.32-.37-.47-.45-1.36-.21-2.36.17-.71.34-1.44.77-1.74-.02-.03-.03-.07-.03-.11-.45-3.06-1.45-5.32-2.32-7.32-.56-1.27-1.08-2.46-1.35-3.64-.17-.73-.12-1.37-.06-1.99.08-.92.14-1.72-.61-2.65-.96-.86-2.19-1.87-3.17-2.68-1.3-1.07-1.83-1.51-2.01-1.75-1.55,2.56-3.83,5.07-6.03,6.56-.38.56-1.52,1.29-3.6,2.6-3.26,2.06-8.19,5.16-10.44,8.58-.04.05-.08.1-.14.13-.13.07-.28.14-.42.19.24,0,.52.07.78.38.37.46.01,1.12-.34,1.75-.15.28-.33.59-.35.74h0c-.07.46.24,1.71.56,2.67.17.54.16,1.01-.03,1.38-.16.3-.44.52-.81.62-.03,0-.07.01-.1.01ZM3.36,56.82c-.21,0-.52.03-1.01.09-1.18.16-1.6.64-1.61.75.24.61.84,2.09,1.1,2.71.46,1.09.94,2.02,1.47,2.82.84,1.28,1.7,2.21,2.61,2.86.1-.05.16-.11.21-.2.1-.18.09-.47-.02-.8-.12-.36-.7-2.2-.59-3.01h0c.04-.29.23-.64.43-1,.15-.28.44-.8.4-.95-.08-.09-.13-.1-.38-.09-.18,0-.41.02-.68-.06-.77-.24-1.33-1.67-1.54-2.98-.01-.07-.03-.16-.4-.16ZM36.85,61.97c-.11,0-.25.14-.52,1.3-.28,1.16.02,1.73.12,1.77.66,0,2.25-.03,2.93-.04,1.18-.03,2.22-.14,3.16-.34,1.49-.32,2.68-.78,3.61-1.4-.01-.11-.05-.19-.11-.27-.13-.16-.4-.25-.75-.27-.38-.02-2.31-.15-3.01-.54-.26-.14-.51-.45-.77-.77-.2-.24-.58-.7-.74-.72-.12.04-.14.08-.22.32-.06.17-.13.39-.3.61-.5.63-2.04.63-3.34.36-.02,0-.03,0-.05,0ZM37.04,60.88c1.24.23,2.02.24,2.35,0,.13-.09.2-.24.25-.52-1.06-2.7-1.53-6.21-1.94-9.31-.25-1.89-.49-3.68-.84-5.14-.27-2.94-3.68-9.66-6.75-13.36-.07-.09-.1-.2-.08-.31l.43-2.11c.25-.8.86-2.76,1.45-4.95-.44-.52-.85-1.1-1.21-1.73-1.39-2.42-1.91-3.92-2.22-4.81-.12-.34-.2-.58-.29-.74-1.43-1.89-1.31-3.2-.95-3.97.08-.18.29-.26.47-.19.18.07.28.26.22.45-.34,1.15.68,2.53,1.13,3.07.15.25.26.5.41.86.34.83.91,2.23,2.37,4.49,1.58,2.45,3.59,3.55,4.51,3.55,0,0,0,0,0,0,.05,0,.11.01.15.03,0,0,.01,0,.02,0,.49,0,2.27-2.05,4.65-5.91.01-.02.03-.04.05-.06,1.07-1.13,1.55-2.47,1.52-2.91-.02-.28-.29-.75-1.45-1.41-.05.02-.24.26-.33.36-.11.13-.18.23-.28.29-.03.02-.06.03-.09.04-.23.07-.51.17-.64.23-.15.33-.02.92.09,1.44.05.21.09.42.12.61.01.09,0,.17-.05.25-.31.52-.8,1.23-1.38,1.72-.54.46-1.31.65-1.99.82-.33.08-.63.16-.88.26-.09.04-.2.03-.29,0-.09-.04-.16-.12-.2-.21-.79-2.18-1.74-4.44-2.09-5.29l-.11-.26s-.03-.09-.03-.13c-.04-1.35-.49-2.51-1.21-3.11-1.21-1.22-3.34-1.57-3.97-1.64-.19-.02-.33-.19-.32-.39,0-.19.17-.35.36-.35.64-.02,1.7.15,2.43.29l.17-.93c.02-.11.08-.2.17-.25.09-.05.2-.07.31-.03.93.3,1.58.36,1.71.36h0c.18-.11.27-1.07.33-1.76.02-.16.14-.37.3-.4.11-.02.21-.05.28-.07-.06-.22-.16-.52-.24-.8-.07-.23-.13-.44-.17-.57-.02-.06-.02-.12,0-.18.12-.59.21-1.41.18-2.06-.63.11-1.5,0-2.6-.32-.18-.06-.29-.24-.26-.43.04-.19.21-.32.4-.3.08,0,.19.02.32.04,1.27.18,2,.14,2.16-.12.01-.72-.56-1.23-1.05-1.54-1.35-.83-3.42-1-4.53-.35-.38.22-1.62,1.05-1.95,2.65-.28,1.38.21,2.91,1.44,4.56.05.06.07.14.07.21.01.45-.02,1.35-.39,2.23-.02.06-.06.11-.12.15-.2.16-.49.29-.82.45-.52.25-1.17.56-1.73,1.05-.03.03-.07.05-.11.07l-.45.18s-.04.02-.06.02c.09.12.09.29,0,.42-.41.59-.64,1.29-.7,2.13-.1,1.39.16,2.92.43,4.55.15.87.3,1.78.4,2.69.02.19-.11.37-.3.41-.19.03-.38-.09-.42-.28-.09-.36-.2-.71-.32-1.07-.11-.35-.23-.71-.32-1.08-.54-.31-1.05-.65-1.5-.95-.45-.3-.91-.6-1.08-.65-.16-.05-.27-.19-.27-.36,0-.16.11-.31.27-.36.51-.15.95-.23,1.34-.3.23-.04.46-.09.68-.14-.08-.77-.09-1.42-.05-2.02.07-1.02.38-1.9.92-2.62-1.56.65-3.18,1.45-4.93,3.05-.43.37-.83.7-1.19.99-.85.69-1.58,1.28-1.59,1.69,0,.06,0,.24.35.56,1.08.97,5.92,3.48,8.19,3.78.18.02.31.17.32.34.12,1.99-.1,3.61-.71,5.11-.02.04-.04.07-.06.11-1.62,1.85-2.31,4.05-2.09,6.71,0,.04,0,.09-.01.13-.29,1.04-.81,2.08-1.4,3.29-.68,1.38-1.45,2.93-2.16,4.99-.01.04-.03.07-.06.1-.7.91-2.21,1.79-3.8,2.72-1.37.8-2.78,1.63-3.47,2.39-.77.85-1.23,1.62-1.72,2.44-.76,1.27-1.63,2.71-3.83,4.81.51,1.74.83,2.2,1.02,2.29.09.04.23-.02.44-.13,2.36-3.52,7.32-6.64,10.61-8.71,1.63-1.02,3.16-1.99,3.4-2.42.03-.05.07-.09.12-.13,2.67-1.79,5.59-5.31,6.93-8.38,1.44-3.3,2.03-4.74,2.39-5.59l.11-.26c.08-.18.29-.27.47-.21.19.07.29.28.22.47-.06.17-.13.43-.23.75-.43,1.45-1.22,4.11-2.62,6.97.29.27,1.02.87,1.72,1.45.99.81,2.22,1.83,3.24,2.74.98,1.2.9,2.23.82,3.22-.05.56-.09,1.14.05,1.76.26,1.11.75,2.22,1.31,3.51.87,1.98,1.86,4.22,2.34,7.25ZM21.11,18.67c.12.08.24.16.38.25.4.26.84.56,1.3.83-.08-.47-.16-.94-.22-1.4-.01,0-.02,0-.04.01-.36.1-.69.17-1.05.24-.12.02-.24.05-.37.07Z"/>
  </g>
</svg>