<?xml version="1.0" encoding="UTF-8"?>
<svg id="Layer_2" data-name="Layer 2" xmlns="http://www.w3.org/2000/svg" viewBox="0 0 30.25 51.9">
  <g id="layer">
    <path d="M27.17,51.9c-.28,0-.57-.03-.86-.1-.25-.06-3.43-.9-5.2-1.64-.58-.06-1.17-.05-1.84-.04-1.11.02-2.37.04-4.14-.22-1.77.26-3.08.24-4.14.22-.67-.01-1.26-.02-1.84.04-1.76.73-4.96,1.58-5.2,1.64-.96.22-1.83.09-2.57-.41-.9-.6-1.32-1.56-1.36-1.78-.25-1.43,1.73-1.77,3.18-2.02h0c.78-.14,1.73-.18,2.64-.21-1.9-.79-3.47-1.71-4.85-2.84-1.24-1.01-1.23-2.89-.45-4.02.67-.97,2.08-1.59,4.02-.45.1.06.22.12.36.2.79.13,1.65.25,2.56.35.06-.06.13-.11.2-.17-1.79-1.58-6.03-5.43-6.03-6.18,0-.47,1.06-3.8,1.4-4.88l-.28-.13.11-.32c.44-1.23,2.58-7.22,3.47-8.18l.11-.1s0,0,0,0c0-.02.02-.03.03-.05l.08-.12c.04-.06.09-.11.14-.16.02-.02.05-.05.08-.08.05-.05.1-.09.16-.13l.08-.05c.24-.15.52-.25.87-.33l.03-.02h.11c.14-.04.36-.07.59-.1.51-.07,1.05-.14,1.45-.37.14-.08.33-.19.55-.31.54-.3,1.29-.71,1.59-.98.19-.17.4-.5.58-.89-1.27-.73-2.31-2.12-2.96-3.94-.68-.35-1.52-1.24-1.66-1.99-.18-.97.24-1.88.95-2.14,0-.03,0-.06,0-.08,0-3.75,1.53-5.39,2.94-6.11-.04-.16-.06-.32-.06-.48,0-1.27,1.21-2.31,2.7-2.31s2.71,1.04,2.71,2.31c0,.12-.01.25-.03.37,1.52.68,3.18,2.31,3.18,6.23,0,.03,0,.06,0,.09.72.26,1.13,1.17.96,2.14-.14.77-.97,1.64-1.66,1.99-.65,1.81-1.68,3.19-2.93,3.92.18.4.39.74.59.91.3.27,1.04.68,1.58.98.22.12.41.23.55.31.38.23.85.32,1.31.42.68.14,1.39.29,1.86.86.03.04.06.08.09.12.04.02.06.05.09.08.79.63,3.09,7.05,3.54,8.33l.12.33-.2.08c.36,1.11,1.27,3.9,1.27,4.33,0,.83-4.66,5.2-5.99,6.43.18.12.35.26.49.39,1.21-.13,2.31-.28,3.27-.46.06-.03.12-.06.16-.09,1.94-1.14,3.35-.51,4.02.45.78,1.13.79,3.01-.45,4.02-1.38,1.12-2.95,2.04-4.85,2.84.91.03,1.86.07,2.64.21,1.45.25,3.43.59,3.18,2.02-.04.22-.45,1.17-1.35,1.77-.51.34-1.08.51-1.71.51ZM20.04,49.37c.41,0,.8.01,1.2.06l.1.03c1.68.71,4.9,1.57,5.13,1.62,2.26.52,3.03-1.58,3.03-1.6.1-.57-.91-.86-2.58-1.15-.95-.16-2.2-.19-3.3-.22-.3,0-.58-.01-.84-.02h-.09s-1.34-.37-1.34-.37l1.15-.4c2.6-.9,4.6-1.97,6.29-3.34.91-.74.89-2.19.31-3.02-.63-.91-1.74-1-3.04-.24-.07.04-.15.08-.23.13l-.12.04c-1.04.2-2.24.37-3.57.5l-.19.02-.13-.14c-.19-.22-.54-.45-.87-.67l-.3-.19v.02s-.37-.27-.37-.27c-.29-.22-.46-.4-.53-.59-.82-2.07-.75-4.63-.55-6.42.06-.54.07-.92.09-1.32,0-.26.02-.52.04-.82l.02-.3.45-.06c.35-2.6.63-5.31.63-5.34l.17-1.6,2.18,5.99c.07-.02.15-.04.23-.06l.31-.08,1.15,2.84-3.67,7.69.11-.1c2.51-2.25,5.92-5.69,6.1-6.26-.02-.15-.45-1.66-1.35-4.38l-.11-.34.19-.07c-1.41-3.95-2.79-7.26-3.21-7.69l-.09-.02-.08-.13s-.06-.09-.09-.13c-.31-.37-.83-.48-1.44-.61-.52-.11-1.05-.22-1.53-.51-.14-.08-.32-.18-.53-.3-.61-.33-1.36-.75-1.72-1.08-.33-.3-.67-.86-.91-1.5l-.12-.31.3-.15c1.25-.61,2.29-1.97,2.92-3.82l.06-.16.16-.06c.51-.19,1.26-.96,1.36-1.5.12-.63-.12-1.22-.53-1.33-.03,0-.06-.01-.09-.01l-.37-.02.02-.37c0-.12,0-.24,0-.36,0-3.02-1.01-4.93-3.01-5.66l-.35-.13.13-.35c.06-.15.09-.3.09-.45,0-.87-.88-1.57-1.96-1.57s-1.96.7-1.96,1.57c0,.18.04.35.12.52l.16.35-.35.15c-1.86.79-2.8,2.67-2.8,5.58,0,.12,0,.24,0,.36l.02.37-.37.02s-.07,0-.1.01c-.41.1-.64.7-.53,1.33.1.53.86,1.31,1.36,1.5l.16.06.06.16c.63,1.86,1.68,3.22,2.94,3.83l.3.15-.12.32c-.24.65-.57,1.19-.9,1.49-.36.33-1.12.74-1.72,1.08-.21.11-.39.22-.53.3-.53.31-1.14.39-1.72.47-.19.03-.38.05-.56.08h-.06c-.3.07-.52.15-.69.26l-.06.04s-.05.04-.07.06c-.07.07-.1.1-.12.13l-.35-.14.31.2s-.05.07-.06.1l-.09.19h-.11c-.38.43-1.63,3.29-3.15,7.56l.27.1-.11.34c-.89,2.74-1.45,4.73-1.47,5,.17.4,3.03,3.2,6.12,5.92l.36.32-.4.27c-.27.18-.46.33-.58.47l-.13.14-.19-.02c-1.02-.1-1.98-.23-2.85-.38l-.11-.04c-.16-.09-.32-.17-.43-.24-1.3-.76-2.41-.68-3.04.24-.58.84-.6,2.28.31,3.02,1.7,1.38,3.7,2.44,6.29,3.34l1.14.4-1.42.37c-.26,0-.55.02-.84.02-1.1.03-2.35.05-3.3.22-1.66.29-2.68.58-2.58,1.16,0,0,.76,2.11,3.03,1.59.24-.06,3.43-.9,5.13-1.62l.1-.03c.65-.07,1.27-.06,1.98-.05,1.09.02,2.33.04,4.07-.22h.06s.06,0,.06,0c1.74.26,2.98.24,4.07.22.27,0,.53,0,.79,0ZM20.05,31.36c0,.17-.01.33-.02.49-.01.4-.02.81-.09,1.38-.19,1.67-.26,4.05.47,5.97l3.25-6.81-.78-1.94c-.08.02-.16.04-.23.06l-.33.1-1.32-3.63c-.12,1.09-.3,2.61-.5,4.06l-.04.28-.41.06ZM9.15,40.36l-4.22-7.47,1.3-3.4.32.08s.09.02.13.03l2.47-5.65.17,1.34s.34,2.77.71,5.35l.27.04.04.27c.15.89.24,1.54.29,1.97.1.91.34,4.09-.67,6.62-.07.17-.22.34-.48.54l-.34.26ZM5.75,32.83l3.58,6.33c.89-2.36.66-5.29.57-6.14-.04-.37-.12-.93-.24-1.66l-.29-.05-.04-.27c-.22-1.55-.44-3.2-.58-4.31l-1.65,3.78-.32-.1s-.07-.02-.1-.03l-.94,2.45Z"/>
  </g>
</svg>