<?xml version="1.0" encoding="UTF-8"?>
<svg id="Layer_2" data-name="Layer 2" xmlns="http://www.w3.org/2000/svg" viewBox="0 0 40.51 46.47">
  <g id="layer">
    <g>
      <path d="M20.25,46.47C9.09,46.47,0,37.34,0,26.1c0-7.68,4.34-14.73,11.12-18.18-.06-.01-.11-.03-.17-.04-.35-.12-.65-.39-.82-.73-.34-.68-.11-1.49.51-1.8l1.09-.54c.28-.14.61-.16.92-.06.35.12.65.39.82.73.25.51.19,1.08-.11,1.47,1.66-.61,3.39-.99,5.15-1.14v-.55c-1.59-.02-2.88-1.19-2.88-2.63s1.31-2.63,2.92-2.63h3.43c1.61,0,2.92,1.18,2.92,2.63s-1.29,2.61-2.88,2.63v.55c1.76.15,3.49.53,5.15,1.14-.3-.39-.36-.97-.11-1.47.17-.35.47-.62.82-.73.31-.1.64-.08.92.06l1.08.54c.62.31.85,1.12.51,1.8-.17.35-.47.62-.82.73-.06.02-.11.03-.17.04,6.78,3.45,11.12,10.5,11.12,18.18,0,11.23-9.09,20.37-20.25,20.37ZM11.8,7.12s.08,0,.11.02c.09.03.16.09.2.18l.18.36c.05.08.08.2.05.29-.03.1-.09.18-.18.23C5.19,11.39.69,18.42.69,26.1c0,10.85,8.77,19.68,19.56,19.68s19.56-8.83,19.56-19.68c0-7.69-4.5-14.72-11.46-17.91-.09-.04-.16-.12-.19-.21-.03-.09-.02-.19.03-.28,0-.02.04-.05.05-.07l.15-.32c.04-.08.11-.15.2-.18.09-.03.18-.02.27.02l.08.04c.15.07.29.05.38.02.18-.06.33-.2.42-.38.17-.34.08-.73-.2-.87l-1.08-.54c-.15-.07-.29-.05-.38-.02-.18.06-.33.2-.42.38-.17.34-.08.73.2.87l.11.05c.08.04.15.11.18.2.03.09.02.18-.02.27l-.18.36c-.03.09-.1.2-.19.24-.09.04-.2.07-.29.04-1.87-.75-3.84-1.2-5.85-1.34-.18-.01-.32-.16-.32-.35v-1.22c0-.19.16-.35.35-.35h.31c1.23,0,2.22-.87,2.22-1.94s-1-1.94-2.22-1.94h-3.43c-1.23,0-2.22.87-2.22,1.94s1,1.94,2.22,1.94h.31c.19,0,.35.16.35.35v1.22c0,.18-.14.33-.32.35-2.01.14-3.98.59-5.85,1.34-.09.04-.19.03-.28-.01-.09-.04-.15-.12-.18-.21l.3-.17h0s-.32.09-.32.09l-.17-.34c-.08-.17-.01-.38.16-.46l.11-.06c.28-.14.37-.53.2-.87-.09-.19-.24-.32-.42-.38-.09-.03-.24-.05-.38.02l-1.09.54c-.28.14-.37.53-.2.87.09.19.25.33.42.38.09.03.24.05.38-.02l.08-.04s.1-.04.15-.04Z"/>
      <path d="M20.25,44.28c-9.97,0-18.08-8.16-18.08-18.18S10.29,7.92,20.25,7.92s18.08,8.16,18.08,18.18-8.11,18.18-18.08,18.18ZM20.25,8.62c-9.59,0-17.38,7.84-17.38,17.49s7.8,17.49,17.38,17.49,17.38-7.84,17.38-17.49-7.8-17.49-17.38-17.49Z"/>
      <path d="M35.34,23.67c.05.29-.14.57-.43.62l-1.97.34c-.26,0-.48-.19-.53-.45-.03-.14,0-.28.09-.4.08-.12.2-.2.35-.22l1.97-.34c.26,0,.48.19.53.44Z"/>
      <path d="M31.22,19.39l1.65-.96c.25-.14.59-.05.73.19.15.26.06.58-.19.73l-1.65.96c-.08.05-.17.07-.27.07-.19,0-.37-.1-.46-.27-.15-.26-.06-.58.2-.73Z"/>
      <path d="M19.95,11.28c0-.3.24-.54.53-.54s.53.24.53.54v1.92c0,.3-.24.54-.53.54s-.53-.24-.53-.54v-1.92Z"/>
      <path d="M5.78,22.76h.09s1.88.34,1.88.34c.14.03.26.1.35.22.08.12.11.26.09.4-.04.25-.26.44-.53.44h-.09s-1.88-.34-1.88-.34c-.14-.03-.26-.1-.35-.22-.08-.12-.11-.26-.09-.4.04-.25.26-.44.53-.44Z"/>
      <path d="M5.17,28.54c-.05-.29.14-.57.43-.62l1.97-.34c.26,0,.48.18.53.44.05.29-.14.57-.43.62l-1.97.34c-.26,0-.48-.19-.53-.44Z"/>
      <path d="M9.54,32.49c-.04.14-.13.26-.25.33l-1.65.96c-.08.05-.17.07-.27.07-.19,0-.37-.1-.46-.27-.15-.26-.06-.58.19-.73l1.65-.96c.25-.14.59-.05.73.2.07.12.09.27.05.4Z"/>
      <path d="M9.72,19.71c-.1.17-.27.27-.46.27-.09,0-.19-.03-.27-.07l-1.65-.96c-.25-.15-.34-.47-.2-.73.14-.25.49-.34.73-.2l1.65.96c.25.15.34.48.2.73Z"/>
      <path d="M12.24,36.18l-1.23,1.47c-.1.12-.25.19-.41.19-.13,0-.25-.04-.34-.13-.22-.19-.25-.53-.07-.75l1.23-1.47c.18-.22.54-.25.75-.07.22.19.25.53.07.75Z"/>
      <path d="M12.53,16.48c-.1.08-.22.13-.34.13-.16,0-.31-.07-.41-.19l-1.22-1.47c-.19-.23-.16-.56.07-.75.22-.18.57-.15.75.07l1.22,1.47c.19.23.16.56-.07.75Z"/>
      <path d="M16.15,38.34l-.65,1.8c-.08.21-.28.35-.5.35-.06,0-.12-.01-.18-.03-.28-.1-.42-.41-.32-.69l.65-1.8c.1-.27.42-.42.69-.32.27.1.42.41.32.68Z"/>
      <path d="M16.27,14.4c-.06.02-.12.03-.18.03-.22,0-.42-.14-.5-.35l-.65-1.8c-.1-.28.04-.59.32-.69.26-.1.59.05.68.32l.65,1.8c.1.28-.04.58-.32.69Z"/>
      <path d="M20.56,40.93c0,.3-.24.54-.53.54s-.53-.24-.53-.54v-1.92c0-.3.24-.53.53-.53s.53.24.53.53v1.92Z"/>
      <path d="M20.25,28.28c-.92,0-1.66-.75-1.66-1.67,0-.73.47-1.35,1.12-1.58v-7.53c0-.3.24-.54.54-.54s.54.24.54.54v7.53c.65.23,1.12.84,1.12,1.58,0,.93-.75,1.67-1.66,1.67Z"/>
      <path d="M25.56,40.34c-.06.13-.17.23-.3.28-.06.02-.12.03-.18.03-.22,0-.43-.14-.5-.35l-.65-1.8c-.1-.28.04-.58.32-.69.26-.1.59.05.68.32l.65,1.8c.05.13.04.28-.02.41Z"/>
      <path d="M26.01,12.44l-.65,1.8c-.08.21-.28.35-.5.35-.06,0-.13-.01-.18-.03-.27-.1-.42-.41-.32-.68l.65-1.8c.1-.27.42-.42.69-.32.28.1.42.41.32.69Z"/>
      <path d="M29.9,38.01c-.09.09-.22.13-.35.13-.16,0-.31-.07-.41-.19l-1.22-1.47c-.19-.23-.16-.57.07-.75.21-.18.57-.15.75.07l1.22,1.47c.2.24.18.53-.06.75Z"/>
      <path d="M30.32,15.24l-1.23,1.47c-.1.12-.25.19-.41.19-.13,0-.25-.05-.34-.13-.22-.19-.25-.52-.07-.75l1.23-1.47c.18-.22.54-.25.75-.07.22.19.25.53.07.75Z"/>
      <path d="M33.37,33.99c-.1.17-.27.27-.46.27-.09,0-.19-.03-.27-.07l-1.65-.96c-.12-.07-.21-.18-.25-.32-.04-.14-.02-.28.05-.41.14-.24.48-.34.73-.2l1.65.96c.25.15.34.48.2.73Z"/>
      <path d="M34.73,29.44h-.09s-1.88-.34-1.88-.34c-.14-.03-.26-.1-.34-.22-.08-.12-.11-.26-.09-.4.04-.25.26-.44.53-.44h.09s1.88.34,1.88.34c.14.03.26.1.35.22.08.12.11.26.09.4-.04.25-.27.44-.53.44Z"/>
      <polygon points="29.56 37.88 29.56 37.88 29.56 37.88 29.56 37.88"/>
    </g>
  </g>
</svg>