<?xml version="1.0" encoding="UTF-8"?>
<svg id="Layer_2" data-name="Layer 2" xmlns="http://www.w3.org/2000/svg" viewBox="0 0 35.83 57.12">
  <g id="layer">
    <path d="M17.14,57.12c-.99,0-2-.31-2-1.01-.03-.03-.28-.18-.7-.18s-.67.15-.7.21c0,.91-2.2.98-2.87.98h-2.6c-.68,0-2.88-.07-2.88-1.01-.03-.03-.28-.18-.7-.18s-.67.15-.7.21c0,.67-1,.98-1.99.98-1.12,0-2-1.26-2-2.88v-6.19c0-.29.03-2.88,1.14-2.88.11,0,.31-.27.31-.7s-.2-.7-.31-.7c-.65,0-1.14-.75-1.14-1.74s.46-1.68,1.07-1.73c.14-.17.38-.9.38-2.05v-5.92c0-1.16-.24-1.89-.38-2.05-1.04-.11-1.07-2.59-1.07-2.88v-1.08c0-.29.03-2.88,1.14-2.88.11,0,.31-.27.31-.7s-.2-.7-.31-.7c-.84,0-1.14-1.55-1.14-2.88v-.42c0-1.43.66-3.55,1.48-4.72l2.29-3.3c.8-1.15,1.18-1.7,1.4-1.96.01-.2.03-.69.03-1.43,0-.43.19-.84.54-1.19.08-.08.18-.12.29-.12h7.06c.11,0,.21.04.29.12.36.35.54.76.54,1.19,0,.73.01,1.23.03,1.43.22.26.6.81,1.4,1.96l2.29,3.3c.82,1.17,1.48,3.29,1.48,4.72v.42c0,1.33-.3,2.88-1.14,2.88-.11,0-.31.27-.31.7s.2.7.31.7c1.11,0,1.14,2.58,1.14,2.88v1.08c0,.29-.03,2.77-1.07,2.88-.14.17-.38.9-.38,2.05v5.92c0,1.15.24,1.88.38,2.05.62.05,1.07.78,1.07,1.73s-.49,1.74-1.14,1.74c-.11,0-.31.27-.31.7s.2.7.31.7c1.11,0,1.14,2.58,1.14,2.88v6.19c0,1.61-.88,2.88-2,2.88ZM15.97,56.03c.12.1.54.25,1.17.25s1.17-.96,1.17-2.05v-6.19c0-1.15-.24-1.88-.38-2.05-.61-.05-1.07-.7-1.07-1.52s.5-1.53,1.14-1.53c.07-.01.31-.33.31-.91s-.24-.89-.31-.9c-1.11,0-1.14-2.59-1.14-2.88v-5.92c0-1.29.28-2.79,1.07-2.88.14-.17.38-.9.38-2.05v-1.08c0-1.15-.24-1.88-.38-2.05-.61-.05-1.07-.7-1.07-1.52s.47-1.48,1.07-1.53c.14-.17.38-.9.38-2.05v-.42c0-1.27-.61-3.21-1.33-4.25l-2.29-3.3c-.69-.99-1.15-1.63-1.33-1.87-.25-.09-.25-.48-.25-1.99,0-.19-.09-.35-.19-.48h-6.7c-.1.12-.19.29-.19.48,0,1.51,0,1.9-.25,1.99-.18.24-.64.88-1.33,1.87l-2.29,3.3c-.72,1.04-1.33,2.99-1.33,4.25v.42c0,1.15.24,1.88.38,2.05.61.05,1.07.7,1.07,1.53s-.47,1.48-1.07,1.52c-.14.17-.38.9-.38,2.05v1.08c0,1.16.24,1.89.38,2.05.79.09,1.07,1.59,1.07,2.88v5.92c0,.29-.03,2.88-1.14,2.88-.07.01-.31.33-.31.9s.24.89.31.91c.64,0,1.14.67,1.14,1.53s-.47,1.48-1.07,1.52c-.14.17-.38.9-.38,2.05v6.19c0,1.09.55,2.05,1.17,2.05s1.05-.15,1.17-.25c.05-.54.69-.95,1.52-.95s1.43.38,1.52.89c.21.12.93.31,2.06.31h2.6c1.13,0,1.85-.19,2.06-.31.09-.52.71-.89,1.52-.89s1.48.4,1.52.95ZM17.99,24.27h0,0ZM31.53,56.62h-5.93c-1.58,0-2.93-1.28-3.01-2.85l-1.28-23.83c0-.11.03-.23.11-.31.08-.08.19-.13.3-.13h13.68c.11,0,.22.05.3.13.08.08.12.19.11.31l-1.28,23.83c-.08,1.57-1.44,2.85-3.01,2.85ZM22.17,30.34l1.26,23.39c.06,1.14,1.04,2.07,2.18,2.07h5.93c1.14,0,2.12-.93,2.18-2.07l1.26-23.39h-12.8ZM33.15,40.64h-9.16c-.22,0-.4-.17-.42-.4l-.4-8.33c0-.11.04-.22.11-.31.08-.08.19-.13.3-.13h9.96c.11,0,.22.05.3.13.08.08.12.19.11.31l-.4,8.33c-.01.22-.19.4-.42.4ZM24.39,39.81h8.37l.36-7.5h-9.09l.36,7.5ZM16.6,19.44H2.54c-.11,0-.22-.05-.3-.13-.08-.08-.12-.19-.11-.31.06-1.15.55-2.67,1.14-3.54l1.76-2.61c.58-.86.88-1.3,1.07-1.53,0-.17.02-.55.02-1.1,0-.36.15-.71.44-1,.08-.08.18-.12.29-.12h5.43c.11,0,.22.04.29.12.29.29.44.64.44,1,0,.55,0,.93.02,1.1.18.23.49.68,1.07,1.53l1.76,2.61c.59.87,1.08,2.39,1.14,3.54,0,.11-.03.23-.11.31-.08.08-.19.13-.3.13ZM3,18.61h13.14c-.13-.93-.52-2.03-.95-2.68l-1.76-2.61c-.51-.75-.86-1.25-1-1.45-.22-.1-.22-.47-.22-1.65,0-.11-.04-.21-.1-.29h-5.05c-.05.08-.1.18-.1.29,0,1.18,0,1.55-.22,1.65-.15.21-.52.73-1,1.45l-1.76,2.61c-.44.64-.82,1.75-.95,2.68ZM13.94,5.76H5.19c-.23,0-.42-.19-.42-.42V.42c0-.23.19-.42.42-.42h8.75c.23,0,.42.19.42.42v4.93c0,.23-.19.42-.42.42ZM5.61,4.93h7.92V.83h-7.92v4.1Z"/>
  </g>
</svg>